<svg width="36" height="36" viewBox="0 0 36 36" fill="none" xmlns="http://www.w3.org/2000/svg">
<path d="M25.732 0.781586H11.0597C4.68648 0.781586 0.887085 4.57909 0.887085 10.9491V25.5966C0.887085 31.9841 4.68648 35.7816 11.0597 35.7816H25.7145C32.0876 35.7816 35.887 31.9841 35.887 25.6141V10.9491C35.9045 4.57909 32.1051 0.781586 25.732 0.781586ZM18.3958 25.0716C14.6489 25.0716 11.6024 22.0266 11.6024 18.2816C11.6024 14.5366 14.6489 11.4916 18.3958 11.4916C22.1427 11.4916 25.1892 14.5366 25.1892 18.2816C25.1892 22.0266 22.1427 25.0716 18.3958 25.0716ZM28.761 9.32159C28.6734 9.53159 28.5509 9.72409 28.3933 9.89909C28.2182 10.0566 28.0256 10.1791 27.8155 10.2666C27.6054 10.3541 27.3778 10.4066 27.1502 10.4066C26.6774 10.4066 26.2397 10.2316 25.9071 9.89909C25.7495 9.72409 25.6269 9.53159 25.5394 9.32159C25.4518 9.11159 25.3993 8.88409 25.3993 8.65659C25.3993 8.42909 25.4518 8.20159 25.5394 7.99159C25.6269 7.76409 25.7495 7.58909 25.9071 7.41409C26.3098 7.01159 26.9226 6.81909 27.4828 6.94159C27.6054 6.95909 27.7105 6.99409 27.8155 7.04659C27.9206 7.08159 28.0256 7.13409 28.1307 7.20409C28.2182 7.25659 28.3057 7.34409 28.3933 7.41409C28.5509 7.58909 28.6734 7.76409 28.761 7.99159C28.8485 8.20159 28.901 8.42909 28.901 8.65659C28.901 8.88409 28.8485 9.11159 28.761 9.32159Z" fill="#702065"/>
</svg>
