<svg xmlns="http://www.w3.org/2000/svg" width="652.061" height="388.156" viewBox="0 0 652.061 388.156">
  <g id="Group_1" data-name="Group 1" transform="translate(-1.61 -9.52)">
    <path id="Path_1" data-name="Path 1" d="M25.887,144.222q-10.4,0-17.087-4.906-6.683-4.99-7.19-14.211H19.289a6.6,6.6,0,0,0,1.861,4.568,5.984,5.984,0,0,0,4.145,1.438,5.954,5.954,0,0,0,3.722-1.1A3.855,3.855,0,0,0,30.54,126.8a4.484,4.484,0,0,0-2.453-4.06,43.277,43.277,0,0,0-7.951-3.214,79.221,79.221,0,0,1-9.474-3.722,19.287,19.287,0,0,1-6.26-5.329,15.138,15.138,0,0,1-2.622-9.22,16.536,16.536,0,0,1,2.876-9.812,17.685,17.685,0,0,1,7.951-6.26,29.671,29.671,0,0,1,11.5-2.115q10.4,0,16.58,4.906,6.26,4.822,6.683,13.619H29.355a5.238,5.238,0,0,0-1.692-4.06,5.761,5.761,0,0,0-3.976-1.353,4.3,4.3,0,0,0-3.045,1.1,4.39,4.39,0,0,0,.085,6.09,14.439,14.439,0,0,0,3.3,2.115q1.945.846,5.752,2.2a64.477,64.477,0,0,1,9.3,3.891,17.96,17.96,0,0,1,6.344,5.329,13.382,13.382,0,0,1,2.707,8.628,17.35,17.35,0,0,1-2.707,9.559,17.964,17.964,0,0,1-7.7,6.683A26.589,26.589,0,0,1,25.887,144.222ZM96.106,133.9H74.959l-3.214,9.728H54.319l21.74-59.636H95.176l21.655,59.636H99.321Zm-4.145-12.688-6.429-19.286-6.344,19.286ZM194.39,83.994V143.63H177.81V110.725L166.56,143.63H152.687l-11.335-33.159V143.63h-16.58V83.994H144.82l14.972,38.742,14.634-38.742Zm49.7,49.908H222.944l-3.214,9.728H202.3l21.74-59.636h19.117l21.655,59.636h-17.51Zm-4.145-12.688-6.429-19.286-6.344,19.286Zm63.01,22.416-11.843-21.993h-1.776V143.63h-16.58V83.994H298.9a26.645,26.645,0,0,1,12.181,2.538,17.147,17.147,0,0,1,7.528,6.852,18.824,18.824,0,0,1,2.538,9.728,17.326,17.326,0,0,1-13.111,17.256l13.45,23.262ZM289.338,110.3h8.205a7.117,7.117,0,0,0,5.075-1.607,6.117,6.117,0,0,0,1.692-4.652,5.738,5.738,0,0,0-1.776-4.483,6.767,6.767,0,0,0-4.991-1.692h-8.205Zm79.948,2.707a13.79,13.79,0,0,1,8.29,5.245,14.353,14.353,0,0,1,3.13,9.136q0,7.613-5.245,11.927t-14.719,4.314H331.221V83.994h28.591q9.136,0,14.3,4.06,5.244,4.06,5.245,11.42a13.8,13.8,0,0,1-2.791,8.8A13.532,13.532,0,0,1,369.286,113.009ZM347.8,107.68h8.374q6.259,0,6.26-5.16,0-5.329-6.26-5.329H347.8Zm9.643,22.585q6.259,0,6.26-5.245a5.14,5.14,0,0,0-1.692-4.145,6.763,6.763,0,0,0-4.652-1.438H347.8v10.827Zm49.645-32.99V107h19.033v12.6H407.088V130.35h21.57V143.63h-38.15V83.994h38.15V97.275Zm71.8-13.281v39.5q0,10.065-5.5,15.4-5.412,5.329-14.972,5.329-10.151,0-16.241-5.667-6-5.668-6.006-16.326h16.41q.085,7.02,5.16,7.021,4.568,0,4.568-5.752v-39.5Zm36.035,0a33.914,33.914,0,0,1,16.41,3.807A26.118,26.118,0,0,1,542.249,98.29a31.028,31.028,0,0,1,3.807,15.48,30.334,30.334,0,0,1-3.891,15.4,27.217,27.217,0,0,1-10.912,10.658,33.732,33.732,0,0,1-16.326,3.807h-23.6V83.994Zm-1.269,45q7.274,0,11.42-3.976t4.145-11.25q0-7.359-4.145-11.335-4.146-4.06-11.42-4.06h-5.752V129Zm58.988-31.721V107h19.033v12.6H572.647V130.35h21.57V143.63h-38.15V83.994h38.15V97.275Zm62.5,46.355L623.3,121.637h-1.776V143.63h-16.58V83.994h26.138a26.645,26.645,0,0,1,12.181,2.538,17.147,17.147,0,0,1,7.528,6.852,18.823,18.823,0,0,1,2.538,9.728,17.326,17.326,0,0,1-13.111,17.256l13.45,23.262ZM621.526,110.3h8.205a7.118,7.118,0,0,0,5.075-1.607,6.117,6.117,0,0,0,1.692-4.652,5.738,5.738,0,0,0-1.776-4.483,6.767,6.767,0,0,0-4.991-1.692h-8.205Z" transform="translate(0 61.696)" fill="#c8ffa3" style="mix-blend-mode: lighten;isolation: isolate"/>
    <path id="Path_2" data-name="Path 2" d="M62.042,33.421l4.3,1.6,4.3-1.6,1.322.493-5.627,2.1-5.627-2.1Z" transform="translate(49.588 20.051)" fill="#fff"/>
    <path id="Path_3" data-name="Path 3" d="M245.809,39.545v69.709h-16.98v-28.7H202.414v28.7h-16.98V39.545h16.98V66.853h26.414V39.545Zm28.941,0V81.251q0,6.256,3.078,9.632t9.036,3.376q5.958,0,9.136-3.376t3.178-9.632V39.545h16.98V81.152q0,9.334-3.972,15.789a25.366,25.366,0,0,1-10.724,9.731,35.76,35.76,0,0,1-29.691.1,24.53,24.53,0,0,1-10.228-9.731q-3.773-6.554-3.773-15.888V39.545Zm78.554,70.4a35.859,35.859,0,0,1-13.7-2.483,22.683,22.683,0,0,1-9.731-7.348A20.276,20.276,0,0,1,326.1,88.4h18.073a8.97,8.97,0,0,0,2.681,5.958,8.753,8.753,0,0,0,5.958,1.986,9.511,9.511,0,0,0,5.958-1.688,5.952,5.952,0,0,0,2.185-4.866,5.621,5.621,0,0,0-1.787-4.27,13.253,13.253,0,0,0-4.27-2.78,64.528,64.528,0,0,0-7.15-2.483,78.391,78.391,0,0,1-11.022-4.171,20.366,20.366,0,0,1-7.348-6.157q-3.078-4.071-3.078-10.625,0-9.731,7.05-15.193,7.05-5.561,18.371-5.561,11.519,0,18.569,5.561,7.05,5.462,7.547,15.292H359.46a7.02,7.02,0,0,0-2.482-5.263,8.606,8.606,0,0,0-5.859-1.986,7.166,7.166,0,0,0-4.965,1.688,5.757,5.757,0,0,0-1.887,4.667,5.847,5.847,0,0,0,3.178,5.263,52.088,52.088,0,0,0,9.93,4.071A88.461,88.461,0,0,1,368.3,72.215a20.755,20.755,0,0,1,7.348,6.057A16.215,16.215,0,0,1,378.725,88.5a19.829,19.829,0,0,1-3.078,10.824,20.865,20.865,0,0,1-8.738,7.745A30.085,30.085,0,0,1,353.3,109.949Zm52.852-56.8v14.1H428.9V80.358h-22.74V95.65h25.719v13.6h-42.7V39.545h42.7v13.6Zm86.89-13.6v13.6h-18.47v56.1H457.6v-56.1h-18.47v-13.6Z" transform="translate(154.211 24.355)" fill="rgba(255,255,255,0.5)" style="mix-blend-mode: lighten;isolation: isolate"/>
    <path id="Path_4" data-name="Path 4" d="M52.673,61.892H40.1L19.058,30.042v31.85H6.48V10.256H19.058l21.037,32v-32H52.673Zm33.538.515a27.155,27.155,0,0,1-13.387-3.384,25.725,25.725,0,0,1-9.636-9.415,26.828,26.828,0,0,1-3.531-13.681,26.432,26.432,0,0,1,3.531-13.608A25.725,25.725,0,0,1,72.824,12.9,27.155,27.155,0,0,1,86.211,9.52,26.744,26.744,0,0,1,99.525,12.9a24.512,24.512,0,0,1,9.562,9.415,26.432,26.432,0,0,1,3.531,13.608,26.828,26.828,0,0,1-3.531,13.681,25.181,25.181,0,0,1-9.562,9.415A26.744,26.744,0,0,1,86.211,62.407Zm0-11.475a12.558,12.558,0,0,0,9.857-4.119q3.751-4.119,3.751-10.886,0-6.841-3.751-10.886a12.558,12.558,0,0,0-9.857-4.119,12.989,12.989,0,0,0-10,4.046q-3.678,4.046-3.678,10.96,0,6.841,3.678,10.96A12.989,12.989,0,0,0,86.211,50.932Zm59.737,10.96L135.21,42.4h-3.016V61.892H119.616V10.256h21.111A23,23,0,0,1,151.1,12.389a14.589,14.589,0,0,1,6.473,5.884,16.117,16.117,0,0,1,2.133,8.238,15.238,15.238,0,0,1-2.942,9.195,15.451,15.451,0,0,1-8.533,5.737l11.916,20.449ZM132.194,33.5h7.8a7,7,0,0,0,5.149-1.692,6.31,6.31,0,0,0,1.765-4.781,6.115,6.115,0,0,0-1.765-4.634,7,7,0,0,0-5.149-1.692h-7.8Zm54.751-23.244a30.033,30.033,0,0,1,14.27,3.236,22.808,22.808,0,0,1,9.415,9.121,26.256,26.256,0,0,1,3.384,13.461,26.509,26.509,0,0,1-3.384,13.461,22.711,22.711,0,0,1-9.489,9.121,29.866,29.866,0,0,1-14.2,3.236H167.6V10.256Zm-.809,40.75q7.136,0,11.107-3.9t3.972-11.033q0-7.135-3.972-11.107t-11.107-3.972h-5.958V51.006Zm47.486-30.673V30.778h16.844v9.709H233.621V51.815h19.051V61.892H221.043V10.256h31.629V20.333Zm59.36,32.438H273.709l-3.089,9.121H257.454l18.683-51.636H290.7l18.683,51.636H296.071Zm-3.236-9.709-6.4-18.9-6.326,18.9Zm-248.7,32.1V85.494H19.487V96.653H35.621V106.68H19.487v21.412H6.594V75.165ZM72.857,128.62a27.835,27.835,0,0,1-13.722-3.468,26.365,26.365,0,0,1-9.877-9.651,27.5,27.5,0,0,1-3.619-14.023A27.093,27.093,0,0,1,49.258,87.53a26.365,26.365,0,0,1,9.877-9.651,27.835,27.835,0,0,1,13.722-3.468A27.414,27.414,0,0,1,86.5,77.879a25.127,25.127,0,0,1,9.8,9.651,27.093,27.093,0,0,1,3.619,13.948A27.5,27.5,0,0,1,96.3,115.5a25.811,25.811,0,0,1-9.8,9.651A27.414,27.414,0,0,1,72.857,128.62Zm0-11.762a12.872,12.872,0,0,0,10.1-4.222q3.845-4.222,3.845-11.158,0-7.012-3.845-11.158a12.872,12.872,0,0,0-10.1-4.222A13.314,13.314,0,0,0,62.6,90.244q-3.77,4.147-3.77,11.234,0,7.012,3.77,11.234A13.314,13.314,0,0,0,72.857,116.859Zm81.587,11.234H141.552L119.989,95.446v32.646H107.1V75.165h12.893l21.563,32.8v-32.8h12.893Zm29.174-52.927a30.781,30.781,0,0,1,14.627,3.317,23.382,23.382,0,0,1,9.651,9.349,26.905,26.905,0,0,1,3.468,13.8,27.166,27.166,0,0,1-3.468,13.8,23.279,23.279,0,0,1-9.726,9.349,30.611,30.611,0,0,1-14.551,3.317H163.79V75.165Zm-.829,41.769q7.315,0,11.385-4t4.071-11.309q0-7.313-4.071-11.385t-11.385-4.071h-6.106v30.761Zm48.672-31.44V96.2h17.265v9.952H231.461v11.611h19.527v10.329h-32.42V75.165h32.42V85.494Zm75.246,42.6H293.814L272.251,95.446v32.646H259.359V75.165h12.893l21.563,32.8v-32.8h12.893Z" transform="translate(4.085)" fill="rgba(255,255,255,0.5)" style="mix-blend-mode: lighten;isolation: isolate"/>
    <path id="Path_5" data-name="Path 5" d="M38.788,159.724v8.818H26.817v36.364H15.811V168.541H3.84v-8.818Zm16.529,8.818v9.139H70.057v8.5H55.318v9.912h16.67v8.818H44.312V159.724H71.987v8.818Zm51.941,28.383H90.4l-2.7,7.981H76.172L92.52,159.724h12.744l16.348,45.182H109.962Zm-2.832-8.5-5.6-16.541-5.535,16.541Zm54.663-28.705v8.818H147.118v36.364H136.112V168.541H124.141v-8.818Zm16.529,8.818v9.139h14.74v8.5h-14.74v9.912h16.67v8.818H164.613V159.724h27.676v8.818Zm46.856,36.364-9.4-17.056h-2.639v17.056H199.433V159.724H217.9a20.116,20.116,0,0,1,9.075,1.867,12.76,12.76,0,0,1,5.664,5.149,14.1,14.1,0,0,1,1.866,7.209,13.325,13.325,0,0,1-2.574,8.045,13.525,13.525,0,0,1-7.466,5.02L234.9,204.905Zm-12.036-24.844h6.822a6.123,6.123,0,0,0,4.505-1.48,5.522,5.522,0,0,0,1.545-4.184,5.353,5.353,0,0,0-1.545-4.055,6.123,6.123,0,0,0-4.505-1.48h-6.822Zm83.751-20.338v45.182H283.184V186.3h-17.12v18.6H255.058V159.724h11.006v17.7h17.12v-17.7Zm18.759,0v27.032a8.937,8.937,0,0,0,2,6.243,7.529,7.529,0,0,0,5.857,2.188A7.743,7.743,0,0,0,326.722,193a8.769,8.769,0,0,0,2.06-6.243V159.724h11.006v26.968a19.181,19.181,0,0,1-2.574,10.234,16.451,16.451,0,0,1-6.951,6.307,23.178,23.178,0,0,1-19.244.064,15.885,15.885,0,0,1-6.629-6.307,20.318,20.318,0,0,1-2.446-10.3V159.724Zm50.916,45.632a23.248,23.248,0,0,1-8.882-1.609,14.691,14.691,0,0,1-6.307-4.763,13.133,13.133,0,0,1-2.446-7.595h11.714a5.808,5.808,0,0,0,1.738,3.862,5.666,5.666,0,0,0,3.862,1.287,6.166,6.166,0,0,0,3.862-1.094,3.86,3.86,0,0,0,1.416-3.154,3.644,3.644,0,0,0-1.159-2.768,8.612,8.612,0,0,0-2.768-1.8,42.009,42.009,0,0,0-4.634-1.609,50.755,50.755,0,0,1-7.144-2.7,13.179,13.179,0,0,1-4.763-3.99,11.112,11.112,0,0,1-2-6.887,11.75,11.75,0,0,1,4.57-9.847q4.568-3.605,11.907-3.6,7.464,0,12.036,3.6a12.694,12.694,0,0,1,4.892,9.912H367.855a4.557,4.557,0,0,0-1.609-3.411,5.576,5.576,0,0,0-3.8-1.287,4.639,4.639,0,0,0-3.218,1.094,3.728,3.728,0,0,0-1.223,3.025,3.788,3.788,0,0,0,2.06,3.411,33.71,33.71,0,0,0,6.436,2.639,57.518,57.518,0,0,1,7.08,2.832,13.474,13.474,0,0,1,4.763,3.926,10.512,10.512,0,0,1,2,6.629,12.856,12.856,0,0,1-2,7.015,13.536,13.536,0,0,1-5.664,5.02A19.5,19.5,0,0,1,363.864,205.356Zm34.255-36.815v9.139h14.739v8.5H398.119v9.912h16.67v8.818H387.113V159.724h27.676v8.818Zm56.316-8.818v8.818H442.465v36.364H431.459V168.541H419.487v-8.818Z" transform="translate(1.871 125.466)" fill="rgba(255,255,255,0.5)" style="mix-blend-mode: lighten;isolation: isolate"/>
    <path id="Path_6" data-name="Path 6" d="M201.631,10.344V17.4h-9.577V46.489h-8.8V17.4h-9.577V10.344ZM214.854,17.4V24.71h11.791v6.8H214.854v7.929H228.19v7.054H206.05V10.344h22.14V17.4ZM256.406,40.1h-13.49l-2.163,6.385h-9.217l13.078-36.145H254.81l13.078,36.145h-9.32Zm-2.266-6.8-4.48-13.233-4.428,13.233Zm43.731-22.964V17.4h-9.577V46.489h-8.8V17.4h-9.577V10.344ZM311.1,17.4V24.71h11.791v6.8H311.1v7.929h13.336v7.054H302.29V10.344h22.14V17.4Zm37.484,29.091-7.517-13.645h-2.111V46.489h-8.8V10.344h14.777a16.1,16.1,0,0,1,7.26,1.493,10.2,10.2,0,0,1,4.531,4.119,11.271,11.271,0,0,1,1.493,5.767,10.663,10.663,0,0,1-2.06,6.436,10.812,10.812,0,0,1-5.973,4.016l8.341,14.314Zm-9.628-19.875h5.458a4.9,4.9,0,0,0,3.6-1.184,4.417,4.417,0,0,0,1.236-3.347,4.281,4.281,0,0,0-1.236-3.244,4.9,4.9,0,0,0-3.6-1.184h-5.458Zm69.628-16.271L395.758,46.489H384.74L371.919,10.344h9.371l8.959,27.289,9.011-27.289Z" transform="translate(144.343 0.691)" fill="rgba(255,255,255,0.5)" style="mix-blend-mode: lighten;isolation: isolate"/>
    <path id="Path_7" data-name="Path 7" d="M19.674,206.172a12.532,12.532,0,0,1,6.065,1.407,9.653,9.653,0,0,1,4.033,3.876,11.47,11.47,0,0,1,1.407,5.721,11.209,11.209,0,0,1-1.438,5.69,10.047,10.047,0,0,1-4.033,3.939,12.464,12.464,0,0,1-6.033,1.407H10.952V206.172ZM19.2,222.8a5.842,5.842,0,0,0,4.22-1.469,6.451,6.451,0,0,0,0-8.347,5.772,5.772,0,0,0-4.22-1.5H17.079V222.8Zm28.678,1.813H40.067l-1.188,3.6H32.44l8.034-22.039h7.065l8,22.039H49.071Zm-1.532-4.689L43.975,212.8l-2.345,7.128Zm27.788-13.755v4.877H68.261v17.163H62.134V211.049H56.32v-4.877ZM84.721,228.43a10.4,10.4,0,0,1-6.315-1.813,6.656,6.656,0,0,1-2.657-5.252h6.534a2.44,2.44,0,0,0,.688,1.688,2.5,2.5,0,0,0,2.907.125,1.426,1.426,0,0,0,.563-1.188,1.659,1.659,0,0,0-.907-1.5A15.938,15.938,0,0,0,82.6,219.3a29.422,29.422,0,0,1-3.5-1.375,7.109,7.109,0,0,1-2.313-1.969,5.6,5.6,0,0,1-.969-3.408,6.109,6.109,0,0,1,1.063-3.626,6.535,6.535,0,0,1,2.939-2.313,10.976,10.976,0,0,1,4.252-.782,9.58,9.58,0,0,1,6.127,1.813,6.4,6.4,0,0,1,2.47,5.033H86a1.934,1.934,0,0,0-.625-1.5,2.132,2.132,0,0,0-1.469-.5,1.59,1.59,0,0,0-1.125.406,1.622,1.622,0,0,0,.031,2.251,5.332,5.332,0,0,0,1.219.782q.719.312,2.126.813a23.844,23.844,0,0,1,3.439,1.438,6.624,6.624,0,0,1,2.345,1.969,4.943,4.943,0,0,1,1,3.189,6.415,6.415,0,0,1-1,3.533,6.64,6.64,0,0,1-2.845,2.47A9.815,9.815,0,0,1,84.721,228.43Z" transform="translate(7.837 164.683)" fill="rgba(255,255,255,0.52)" style="mix-blend-mode: lighten;isolation: isolate"/>
    <path id="Path_8" data-name="Path 8" d="M92.676,196.192v7.558H82.415v31.169H72.981V203.75H62.72v-7.558Zm14.168,7.558v7.834h12.633v7.282H106.844v8.5h14.288v7.558H97.41V196.192h23.722v7.558Zm44.521,24.329H136.911l-2.317,6.841h-9.875l14.012-38.727h10.923l14.012,38.727h-9.985Zm-2.427-7.282-4.8-14.178L139.393,220.8Zm46.853-24.6v7.558H185.529v31.169H176.1V203.75H165.835v-7.558Zm14.169,7.558v7.834h12.633v7.282H209.959v8.5h14.288v7.558H200.526V196.192h23.722v7.558Zm40.162,31.169L242.066,220.3H239.8v14.619h-9.434V196.192H246.2a17.253,17.253,0,0,1,7.779,1.6,10.943,10.943,0,0,1,4.855,4.413,12.089,12.089,0,0,1,1.6,6.179,11.429,11.429,0,0,1-2.207,6.9,11.59,11.59,0,0,1-6.4,4.3l8.937,15.336ZM239.8,213.624h5.848a5.253,5.253,0,0,0,3.862-1.269,4.733,4.733,0,0,0,1.324-3.586,4.586,4.586,0,0,0-1.324-3.476,5.253,5.253,0,0,0-3.862-1.269H239.8Zm58,21.294L289.746,220.3h-2.262v14.619H278.05V196.192h15.833a17.253,17.253,0,0,1,7.779,1.6,10.942,10.942,0,0,1,4.855,4.413,12.089,12.089,0,0,1,1.6,6.179,11.429,11.429,0,0,1-2.207,6.9,11.59,11.59,0,0,1-6.4,4.3l8.937,15.336Zm-10.316-21.294h5.848a5.253,5.253,0,0,0,3.862-1.269,4.733,4.733,0,0,0,1.324-3.586,4.586,4.586,0,0,0-1.324-3.476,5.253,5.253,0,0,0-3.862-1.269h-5.848Zm35.987-9.875v7.834H336.1v7.282H323.471v8.5h14.288v7.558H314.037V196.192h23.722v7.558Zm49.928,4.91a12.627,12.627,0,0,1-1.545,6.179,11.414,11.414,0,0,1-4.744,4.469,16.7,16.7,0,0,1-7.944,1.71h-5.848v13.9h-9.434V196.192h15.281a17.39,17.39,0,0,1,7.834,1.6,11,11,0,0,1,4.8,4.413A12.827,12.827,0,0,1,373.4,208.659Zm-14.95,4.855a5.628,5.628,0,0,0,4.027-1.269,5.518,5.518,0,0,0,0-7.172,5.628,5.628,0,0,0-4.027-1.269h-5.131v9.709Zm29.13-17.322v23.17a7.667,7.667,0,0,0,1.71,5.351,6.453,6.453,0,0,0,5.02,1.876,6.634,6.634,0,0,0,5.075-1.876,7.513,7.513,0,0,0,1.765-5.351v-23.17h9.434v23.115a16.434,16.434,0,0,1-2.207,8.772,14.092,14.092,0,0,1-5.958,5.406,19.866,19.866,0,0,1-16.495.055,13.627,13.627,0,0,1-5.682-5.406,17.419,17.419,0,0,1-2.1-8.827V196.192Zm53.074,18.867a8.961,8.961,0,0,1,5.406,3.365,9.364,9.364,0,0,1,2.041,5.958,9.56,9.56,0,0,1-3.42,7.723q-3.365,2.814-9.434,2.814h-18.04V196.192H434.64q5.9,0,9.213,2.7a8.912,8.912,0,0,1,3.365,7.337,8.773,8.773,0,0,1-1.821,5.682A9.123,9.123,0,0,1,440.653,215.059Zm-14.012-3.2h6.179a5.459,5.459,0,0,0,3.531-.993,4.262,4.262,0,0,0,0-6.068,5.256,5.256,0,0,0-3.531-1.048h-6.179Zm6.951,15.447a5.58,5.58,0,0,0,3.641-1.048,3.863,3.863,0,0,0,1.324-3.144,3.954,3.954,0,0,0-1.379-3.2,5.429,5.429,0,0,0-3.7-1.159h-6.841v8.551Zm29.413.331h12.357v7.282H453.572V196.192h9.434ZM489.3,196.192v38.727h-9.434V196.192Zm34.421,45.347-4.965-6.675a21.914,21.914,0,0,1-4.3.441,20.367,20.367,0,0,1-10.04-2.538,19.293,19.293,0,0,1-7.227-7.061,20.122,20.122,0,0,1-2.648-10.261,19.824,19.824,0,0,1,2.648-10.206,19.293,19.293,0,0,1,7.227-7.061,20.367,20.367,0,0,1,10.04-2.538,20.058,20.058,0,0,1,9.985,2.538,18.384,18.384,0,0,1,7.172,7.061,19.824,19.824,0,0,1,2.648,10.206,20.29,20.29,0,0,1-2.041,9.1,18.517,18.517,0,0,1-5.572,6.786l8.5,10.206Zm-19.529-26.094a11.883,11.883,0,0,0,2.758,8.22,9.742,9.742,0,0,0,7.5,3.034,9.419,9.419,0,0,0,7.392-3.089,11.657,11.657,0,0,0,2.814-8.165,11.533,11.533,0,0,0-2.814-8.165,9.419,9.419,0,0,0-7.392-3.089,9.742,9.742,0,0,0-7.5,3.034A11.757,11.757,0,0,0,504.187,215.445Zm44.689-19.253v23.17a7.666,7.666,0,0,0,1.71,5.351,6.453,6.453,0,0,0,5.02,1.876,6.634,6.634,0,0,0,5.075-1.876,7.512,7.512,0,0,0,1.765-5.351v-23.17h9.434v23.115a16.433,16.433,0,0,1-2.207,8.772,14.093,14.093,0,0,1-5.958,5.406,19.866,19.866,0,0,1-16.495.055,13.627,13.627,0,0,1-5.682-5.406,17.419,17.419,0,0,1-2.1-8.827V196.192Zm39.064,7.558v7.834h12.633v7.282H587.94v8.5h14.288v7.558H578.507V196.192h23.722v7.558Z" transform="translate(51.265 156.137)" fill="rgba(255,255,255,0.5)" style="mix-blend-mode: lighten;isolation: isolate"/>
    <path id="Path_9" data-name="Path 9" d="M4.825,147.75a17.218,17.218,0,0,1,2.069-8.5,14.629,14.629,0,0,1,5.747-5.839,16.727,16.727,0,0,1,8.413-2.115,16.054,16.054,0,0,1,9.838,3.034,14.572,14.572,0,0,1,5.471,8.275H27.719a6.936,6.936,0,0,0-2.758-3.08,7.576,7.576,0,0,0-4-1.057,7.506,7.506,0,0,0-5.884,2.528,11.263,11.263,0,0,0,0,13.516,7.506,7.506,0,0,0,5.884,2.529,7.576,7.576,0,0,0,4-1.057,6.936,6.936,0,0,0,2.758-3.08h8.643a14.572,14.572,0,0,1-5.471,8.275,16.229,16.229,0,0,1-9.838,2.988,17.028,17.028,0,0,1-8.413-2.069,15.035,15.035,0,0,1-5.747-5.839A17.218,17.218,0,0,1,4.825,147.75Zm52.074,16.5a16.965,16.965,0,0,1-8.367-2.115,16.076,16.076,0,0,1-6.022-5.884A16.765,16.765,0,0,1,40.3,147.7a16.52,16.52,0,0,1,2.207-8.5,16.076,16.076,0,0,1,6.022-5.884A16.965,16.965,0,0,1,56.9,131.2a16.709,16.709,0,0,1,8.321,2.115A15.321,15.321,0,0,1,71.2,139.2a16.52,16.52,0,0,1,2.207,8.5,16.765,16.765,0,0,1-2.207,8.551,15.739,15.739,0,0,1-5.976,5.884A16.709,16.709,0,0,1,56.9,164.254Zm0-7.172a7.851,7.851,0,0,0,6.16-2.574,9.714,9.714,0,0,0,2.345-6.8,9.612,9.612,0,0,0-2.345-6.8,7.851,7.851,0,0,0-6.16-2.574,8.116,8.116,0,0,0-6.252,2.529,9.8,9.8,0,0,0-2.3,6.85,9.9,9.9,0,0,0,2.3,6.85A8.116,8.116,0,0,0,56.9,157.083Zm45.933-15.033a10.52,10.52,0,0,1-1.287,5.149,9.519,9.519,0,0,1-3.954,3.724,13.912,13.912,0,0,1-6.62,1.425H86.1v11.585H78.236V131.66H90.971a14.5,14.5,0,0,1,6.528,1.333,9.159,9.159,0,0,1,4,3.678A10.69,10.69,0,0,1,102.832,142.05ZM90.373,146.1a4.692,4.692,0,0,0,3.356-1.057,4.6,4.6,0,0,0,0-5.976A4.692,4.692,0,0,0,90.373,138H86.1V146.1Zm24.872-8.137v6.528h10.528v6.068H115.245v7.08h11.907v6.3H107.384V131.66h19.768v6.3Zm46.341,25.975h-7.861l-13.148-19.906v19.906h-7.861V131.66h7.861l13.148,20v-20h7.861ZM195.7,131.66v32.273h-7.861V150.646H175.606v13.286h-7.861V131.66h7.861V144.3h12.229V131.66Zm26.225,26.572H209.876l-1.931,5.7h-8.229l11.677-32.273h9.1l11.677,32.273h-8.321Zm-2.023-6.068-4-11.815-3.954,11.815Zm37.712-10.3a5.723,5.723,0,0,0-2.529-2.437,8.7,8.7,0,0,0-9.93,1.655,9.426,9.426,0,0,0-2.3,6.666,9.761,9.761,0,0,0,2.391,6.988,8.913,8.913,0,0,0,6.666,2.483,7.939,7.939,0,0,0,4.873-1.471,8.278,8.278,0,0,0,2.942-4.229h-9.976v-5.793h17.1v7.31a15.245,15.245,0,0,1-2.988,5.471,15.4,15.4,0,0,1-5.287,4.092,16.4,16.4,0,0,1-7.264,1.563,17.482,17.482,0,0,1-8.551-2.069,15.273,15.273,0,0,1-5.839-5.839,18.517,18.517,0,0,1,0-17.01,14.857,14.857,0,0,1,5.839-5.839,16.913,16.913,0,0,1,8.5-2.115,16.411,16.411,0,0,1,9.746,2.8,13.2,13.2,0,0,1,5.287,7.769Zm21.916-3.908v6.528h10.528v6.068H279.526v7.08h11.907v6.3H271.665V131.66h19.768v6.3Zm46.34,25.975H318l-13.148-19.906v19.906H297V131.66h7.861l13.148,20v-20h7.861Zm28.452-32.273a18.777,18.777,0,0,1,8.919,2.023,14.263,14.263,0,0,1,5.884,5.7,17.792,17.792,0,0,1,0,16.826,14.194,14.194,0,0,1-5.93,5.7,18.677,18.677,0,0,1-8.873,2.023H342.227V131.66Zm-.506,25.469a9.49,9.49,0,0,0,6.942-2.437,9.224,9.224,0,0,0,2.483-6.9,8.619,8.619,0,0,0-9.424-9.424h-3.724v18.757Zm37.539,7.126a16.964,16.964,0,0,1-8.367-2.115,16.077,16.077,0,0,1-6.022-5.884,16.764,16.764,0,0,1-2.207-8.551,16.52,16.52,0,0,1,2.207-8.5,16.077,16.077,0,0,1,6.022-5.884,16.964,16.964,0,0,1,8.367-2.115,16.711,16.711,0,0,1,8.321,2.115,15.321,15.321,0,0,1,5.976,5.884,16.52,16.52,0,0,1,2.207,8.5,16.765,16.765,0,0,1-2.207,8.551,15.734,15.734,0,0,1-5.976,5.884A16.71,16.71,0,0,1,391.352,164.254Zm0-7.172a7.85,7.85,0,0,0,6.16-2.574,9.714,9.714,0,0,0,2.345-6.8,9.612,9.612,0,0,0-2.345-6.8,7.85,7.85,0,0,0-6.16-2.574,8.115,8.115,0,0,0-6.252,2.529,9.8,9.8,0,0,0-2.3,6.85,9.9,9.9,0,0,0,2.3,6.85A8.115,8.115,0,0,0,391.352,157.083ZM457.1,131.66l-8.413,32.273h-9.516l-5.149-21.239-5.333,21.239H419.17l-8.183-32.273H419.4l4.643,23.492,5.747-23.492h8.643l5.517,23.492,4.689-23.492Zm33.273,32.273H482.51l-13.148-19.906v19.906H461.5V131.66h7.861l13.148,20v-20h7.861Zm13.882-32.273v19.308a6.387,6.387,0,0,0,1.425,4.459,5.376,5.376,0,0,0,4.184,1.563,5.525,5.525,0,0,0,4.229-1.563,6.264,6.264,0,0,0,1.471-4.459V131.66h7.861v19.263a13.686,13.686,0,0,1-1.839,7.31,11.754,11.754,0,0,1-4.965,4.505,16.555,16.555,0,0,1-13.746.046,11.36,11.36,0,0,1-4.735-4.505,14.521,14.521,0,0,1-1.747-7.356V131.66Zm54.021,32.273h-7.861l-13.148-19.906v19.906H529.4V131.66h7.861l13.148,20v-20h7.861Zm18.249-32.273a18.782,18.782,0,0,1,8.919,2.023,14.263,14.263,0,0,1,5.884,5.7,17.792,17.792,0,0,1,0,16.826,14.194,14.194,0,0,1-5.93,5.7,18.681,18.681,0,0,1-8.873,2.023H564.433V131.66Zm-.506,25.469a9.492,9.492,0,0,0,6.942-2.437,9.224,9.224,0,0,0,2.483-6.9,8.619,8.619,0,0,0-9.424-9.424h-3.724v18.757Zm30.138-19.171v6.528h10.528v6.068H606.156v7.08h11.907v6.3H598.294V131.66h19.768v6.3Zm33.928,25.975-6.712-12.183h-1.885v12.183h-7.861V131.66h13.194a14.379,14.379,0,0,1,6.482,1.333,9.106,9.106,0,0,1,4.046,3.678,10.062,10.062,0,0,1,1.333,5.149,9.52,9.52,0,0,1-1.839,5.747,9.647,9.647,0,0,1-5.333,3.586l7.448,12.78Zm-8.6-17.745h4.873a4.377,4.377,0,0,0,3.218-1.057,3.943,3.943,0,0,0,1.1-2.988,3.82,3.82,0,0,0-1.1-2.9,4.377,4.377,0,0,0-3.218-1.057h-4.873Z" transform="translate(2.697 102.078)" fill="rgba(255,255,255,0.5)" style="mix-blend-mode: lighten;isolation: isolate"/>
    <path id="Path_10" data-name="Path 10" d="M329.364,11.046v6.8h-14.2V25.2h10.625v6.6H315.164V45.9h-8.49V11.046Zm27.153,0v6.8h-14.2V25.2h10.625v6.6H342.318V45.9h-8.49V11.046Zm17.519,0a20.273,20.273,0,0,1,9.632,2.185,15.4,15.4,0,0,1,6.355,6.157,17.726,17.726,0,0,1,2.284,9.086,17.9,17.9,0,0,1-2.284,9.086,15.33,15.33,0,0,1-6.4,6.157,20.163,20.163,0,0,1-9.583,2.185H360.979V11.046Zm-.546,27.506q4.816,0,7.5-2.631t2.681-7.448q0-4.816-2.681-7.5t-7.5-2.681h-4.022V38.552Z" transform="translate(255.919 1.28)" fill="rgba(255,255,255,0.4)" style="mix-blend-mode: lighten;isolation: isolate"/>
    <path id="Path_11" data-name="Path 11" d="M273.677,201.59h22.769v10.555h-37.4v-9.8l22.619-32.571H259.05V159.218h37.4v9.8Zm43.33-32.043v10.706h17.266v9.952H317.007v11.611h19.527v10.329h-32.42V159.218h32.42v10.329ZM376.192,185a12.239,12.239,0,0,1,7.389,4.6,12.793,12.793,0,0,1,2.79,8.143A13.063,13.063,0,0,1,381.7,208.3q-4.6,3.845-12.892,3.845H344.149V159.218h23.825q8.068,0,12.591,3.694a12.175,12.175,0,0,1,4.6,10.027,11.989,11.989,0,0,1-2.488,7.766A12.457,12.457,0,0,1,376.192,185Zm-19.15-4.373h8.444a7.459,7.459,0,0,0,4.825-1.357,5.825,5.825,0,0,0,0-8.293,7.185,7.185,0,0,0-4.825-1.432h-8.444Zm9.5,21.111a7.625,7.625,0,0,0,4.976-1.432,5.282,5.282,0,0,0,1.809-4.3,5.4,5.4,0,0,0-1.885-4.373,7.418,7.418,0,0,0-5.051-1.583h-9.349v11.686Zm39.22-42.523v31.666q0,4.75,2.337,7.313t6.861,2.563q4.524,0,6.936-2.563t2.413-7.313V159.218H437.2v31.591a22.467,22.467,0,0,1-3.016,11.988,19.248,19.248,0,0,1-8.143,7.389,27.151,27.151,0,0,1-22.543.075,18.61,18.61,0,0,1-7.766-7.389,23.8,23.8,0,0,1-2.865-12.063V159.218Z" transform="translate(215.967 125.582)" fill="rgba(255,255,255,0.5)" style="mix-blend-mode: lighten;isolation: isolate"/>
  </g>
</svg>
