<svg xmlns="http://www.w3.org/2000/svg" width="775.356" height="438.18" viewBox="0 0 775.356 438.18">
  <g id="Group_1" data-name="Group 1" transform="translate(-2.709 -6.32)">
    <path id="Path_1" data-name="Path 1" d="M251.232,196.644l-8.077,22.772h-6.942l-8.077-22.772h5.9l5.644,17.193,5.677-17.193Zm21.49,4.379v4.671h7.234v4.217h-7.234v5.125h8.207v4.379H267.175v-3.828h-7.493l-1.946,3.828h-6l11.646-22.772h17.55v4.379Zm-5.547,10.348V200.764l-5.352,10.608Zm28.97,8.045-4.736-8.6h-1.33v8.6h-5.547V196.644h9.31a10.145,10.145,0,0,1,4.574.941,6.435,6.435,0,0,1,2.855,2.6,7.108,7.108,0,0,1,.941,3.633,6.721,6.721,0,0,1-1.3,4.055,6.815,6.815,0,0,1-3.763,2.53l5.255,9.018ZM290.079,206.9h3.439a3.089,3.089,0,0,0,2.271-.746,2.783,2.783,0,0,0,.779-2.109,2.7,2.7,0,0,0-.779-2.044,3.089,3.089,0,0,0-2.271-.746h-3.439Zm48.278-10.251v22.772H332.81V205.76l-5.093,13.657h-4.477l-5.125-13.689v13.689h-5.547V196.644h6.553l6.39,15.766,6.326-15.766Zm9.537,4.444v4.606h7.429v4.282h-7.429v5h8.4v4.444H342.347V196.644H356.3v4.444Zm20.534-4.444a13.245,13.245,0,0,1,6.293,1.427,10.062,10.062,0,0,1,4.152,4.023,12.554,12.554,0,0,1,0,11.873,10.016,10.016,0,0,1-4.185,4.022,13.173,13.173,0,0,1-6.261,1.427H359.9V196.644Zm-.357,17.971a6.7,6.7,0,0,0,4.9-1.719,6.51,6.51,0,0,0,1.752-4.866,6.081,6.081,0,0,0-6.65-6.65h-2.628v13.235Zm21.362-.324-3.6,9.31H382.3l1.881-9.31Zm18.46,5.353a11.714,11.714,0,0,1-4.477-.811,7.41,7.41,0,0,1-3.179-2.4,6.623,6.623,0,0,1-1.233-3.828h5.9a2.93,2.93,0,0,0,.876,1.946,2.859,2.859,0,0,0,1.946.649,3.107,3.107,0,0,0,1.946-.551,1.944,1.944,0,0,0,.714-1.59,1.836,1.836,0,0,0-.584-1.395,4.33,4.33,0,0,0-1.395-.908,21.071,21.071,0,0,0-2.336-.811,25.608,25.608,0,0,1-3.6-1.362,6.654,6.654,0,0,1-2.4-2.011,5.6,5.6,0,0,1-1.006-3.471,5.924,5.924,0,0,1,2.3-4.963,9.406,9.406,0,0,1,6-1.817,9.514,9.514,0,0,1,6.066,1.817,6.4,6.4,0,0,1,2.465,5h-6a2.294,2.294,0,0,0-.811-1.719,2.812,2.812,0,0,0-1.914-.649,2.341,2.341,0,0,0-1.622.551,1.881,1.881,0,0,0-.616,1.525,1.91,1.91,0,0,0,1.038,1.719,17.014,17.014,0,0,0,3.244,1.33,28.9,28.9,0,0,1,3.568,1.427,6.779,6.779,0,0,1,2.4,1.979,5.3,5.3,0,0,1,1.006,3.341,6.478,6.478,0,0,1-1.006,3.536,6.817,6.817,0,0,1-2.855,2.53A9.828,9.828,0,0,1,407.894,219.644Zm17.264-18.555v4.606h7.429v4.282h-7.429v5h8.4v4.444H419.611V196.644H433.56v4.444Zm44.667-4.444v22.772h-5.547V205.76l-5.093,13.657h-4.477l-5.126-13.689v13.689h-5.547V196.644h6.553l6.391,15.766,6.326-15.766Zm9.537,4.444v4.606h7.429v4.282h-7.429v5h8.4v4.444H473.815V196.644h13.949v4.444Zm20.534-4.444a13.246,13.246,0,0,1,6.293,1.427,10.062,10.062,0,0,1,4.152,4.023,12.554,12.554,0,0,1,0,11.873,10.015,10.015,0,0,1-4.185,4.022,13.173,13.173,0,0,1-6.261,1.427h-8.531V196.644Zm-.357,17.971a6.7,6.7,0,0,0,4.9-1.719,6.51,6.51,0,0,0,1.752-4.866,6.081,6.081,0,0,0-6.65-6.65h-2.628v13.235Z" transform="translate(262.085 220.898)" fill="rgba(255,255,255,0.81)"/>
    <path id="Path_2" data-name="Path 2" d="M26.232,6.644,18.154,29.417H11.212L3.135,6.644h5.9l5.644,17.193L20.36,6.644Zm7.865,0V29.417H28.55V6.644Zm9.567,18.49h7.266v4.282H38.117V6.644h5.547ZM62.108,6.644A13.246,13.246,0,0,1,68.4,8.072a10.062,10.062,0,0,1,4.152,4.022,11.581,11.581,0,0,1,1.492,5.936,11.694,11.694,0,0,1-1.492,5.936,10.016,10.016,0,0,1-4.185,4.022,13.173,13.173,0,0,1-6.261,1.427H53.577V6.644Zm-.357,17.971a6.7,6.7,0,0,0,4.9-1.719A6.51,6.51,0,0,0,68.4,18.031a6.622,6.622,0,0,0-1.752-4.9,6.622,6.622,0,0,0-4.9-1.752H59.124V24.616Zm23.634,5.028a11.714,11.714,0,0,1-4.477-.811,7.41,7.41,0,0,1-3.179-2.4A6.624,6.624,0,0,1,76.5,22.6h5.9a2.93,2.93,0,0,0,.876,1.946,2.86,2.86,0,0,0,1.946.649,3.107,3.107,0,0,0,1.946-.551,1.944,1.944,0,0,0,.714-1.59,1.836,1.836,0,0,0-.584-1.395,4.33,4.33,0,0,0-1.395-.908,21.083,21.083,0,0,0-2.336-.811,25.608,25.608,0,0,1-3.6-1.362,6.653,6.653,0,0,1-2.4-2.011A5.6,5.6,0,0,1,76.562,13.1a5.924,5.924,0,0,1,2.3-4.963,9.406,9.406,0,0,1,6-1.817,9.514,9.514,0,0,1,6.066,1.817,6.4,6.4,0,0,1,2.465,5h-6a2.293,2.293,0,0,0-.811-1.719,2.811,2.811,0,0,0-1.914-.649,2.341,2.341,0,0,0-1.622.551,1.881,1.881,0,0,0-.616,1.525,1.91,1.91,0,0,0,1.038,1.719,17.016,17.016,0,0,0,3.244,1.33,28.9,28.9,0,0,1,3.568,1.427,6.78,6.78,0,0,1,2.4,1.979,5.3,5.3,0,0,1,1.006,3.341,6.478,6.478,0,0,1-1.006,3.536A6.816,6.816,0,0,1,89.83,28.7,9.828,9.828,0,0,1,85.385,29.644Zm24.921-.227-7.656-10.056V29.417H97.1V6.644h5.547v9.991l7.591-9.991h6.52L107.938,17.8l9.148,11.613ZM125.172,6.644V20.269a4.508,4.508,0,0,0,1.006,3.147,3.794,3.794,0,0,0,2.952,1.1,3.9,3.9,0,0,0,2.984-1.1,4.418,4.418,0,0,0,1.038-3.147V6.644H138.7V20.236a9.663,9.663,0,0,1-1.3,5.158,8.286,8.286,0,0,1-3.5,3.179,11.682,11.682,0,0,1-9.7.032,8.013,8.013,0,0,1-3.341-3.179,10.243,10.243,0,0,1-1.233-5.19V6.644Zm25.954,0a13.246,13.246,0,0,1,6.293,1.427,10.062,10.062,0,0,1,4.152,4.022,11.582,11.582,0,0,1,1.492,5.936,11.694,11.694,0,0,1-1.492,5.936,10.016,10.016,0,0,1-4.185,4.022,13.173,13.173,0,0,1-6.261,1.427h-8.532V6.644Zm-.357,17.971a6.7,6.7,0,0,0,4.9-1.719,6.51,6.51,0,0,0,1.752-4.866,6.622,6.622,0,0,0-1.752-4.9,6.622,6.622,0,0,0-4.9-1.752h-2.628V24.616Zm27.816-13.527v4.606h7.429v4.282h-7.429v5h8.4v4.444H173.038V6.644h13.949v4.444ZM202.2,29.417l-4.736-8.6h-1.33v8.6h-5.547V6.644h9.31a10.145,10.145,0,0,1,4.574.941,6.434,6.434,0,0,1,2.855,2.6,7.108,7.108,0,0,1,.941,3.633,6.72,6.72,0,0,1-1.3,4.055,6.815,6.815,0,0,1-3.763,2.53l5.255,9.018ZM196.136,16.9h3.439a3.089,3.089,0,0,0,2.271-.746,2.783,2.783,0,0,0,.779-2.109A2.7,2.7,0,0,0,201.845,12a3.089,3.089,0,0,0-2.271-.746h-3.439Z" transform="translate(0.495 0)" fill="rgba(255,255,255,0.81)"/>
    <path id="Path_3" data-name="Path 3" d="M222.4,133.05a22.953,22.953,0,0,1,10.908,2.474,17.436,17.436,0,0,1,7.2,6.972,20.078,20.078,0,0,1,2.587,10.29,20.28,20.28,0,0,1-2.587,10.29,17.361,17.361,0,0,1-7.253,6.972,22.826,22.826,0,0,1-10.852,2.474H207.612V133.05Zm-.618,31.15q5.453,0,8.49-2.98t3.036-8.434q0-5.453-3.036-8.49t-8.49-3.036h-4.554V164.2Zm46.814,8.322-8.209-14.9h-2.305v14.9h-9.615V133.05H264.6a17.583,17.583,0,0,1,7.928,1.631,11.169,11.169,0,0,1,4.948,4.5,12.336,12.336,0,0,1,1.631,6.3,11.653,11.653,0,0,1-2.249,7.029,11.825,11.825,0,0,1-6.522,4.386l9.109,15.631Zm-10.515-21.7h5.96a5.354,5.354,0,0,0,3.936-1.293,4.825,4.825,0,0,0,1.349-3.655,4.677,4.677,0,0,0-1.349-3.542,5.354,5.354,0,0,0-3.936-1.293h-5.96Zm51.637,14.732H294.986l-2.362,6.972H282.56l14.282-39.472h11.133l14.282,39.472H312.08Zm-2.474-7.422-4.892-14.451-4.836,14.451ZM371.3,133.05v39.472h-9.615V148.85l-8.828,23.672H345.1l-8.884-23.728v23.728H326.6V133.05H337.96l11.077,27.327L360,133.05Zm31.488,32.5H388.059l-2.362,6.972H375.633l14.282-39.472h11.133l14.282,39.472H405.152Zm-2.474-7.422-4.892-14.451-4.836,14.451Zm47.755-25.078v7.7H437.613v31.769H428V140.754H417.54v-7.7Zm14.44,0v39.472H452.9V133.05Zm21.25,39.866A20.312,20.312,0,0,1,476,171.51a12.843,12.843,0,0,1-5.51-4.161,11.485,11.485,0,0,1-2.137-6.635h10.233a5.072,5.072,0,0,0,1.518,3.374,4.955,4.955,0,0,0,3.374,1.125,5.379,5.379,0,0,0,3.374-.956,3.373,3.373,0,0,0,1.237-2.755,3.183,3.183,0,0,0-1.012-2.418,7.505,7.505,0,0,0-2.418-1.574,36.425,36.425,0,0,0-4.048-1.406,44.317,44.317,0,0,1-6.241-2.362,11.525,11.525,0,0,1-4.161-3.486,9.72,9.72,0,0,1-1.743-6.016,10.264,10.264,0,0,1,3.992-8.6q3.993-3.15,10.4-3.149,6.523,0,10.515,3.149a11.084,11.084,0,0,1,4.273,8.659h-10.4a3.975,3.975,0,0,0-1.406-2.98,4.871,4.871,0,0,0-3.317-1.125,4.054,4.054,0,0,0-2.811.956,3.263,3.263,0,0,0-1.068,2.643,3.309,3.309,0,0,0,1.8,2.98,29.5,29.5,0,0,0,5.623,2.305,50.153,50.153,0,0,1,6.185,2.474,11.76,11.76,0,0,1,4.161,3.43,9.184,9.184,0,0,1,1.743,5.791,11.232,11.232,0,0,1-1.743,6.129,11.829,11.829,0,0,1-4.948,4.386A17.026,17.026,0,0,1,483.761,172.916Zm43.2-.394-13.27-17.431v17.431h-9.615V133.05h9.615v17.318l13.157-17.318h11.3l-15.294,19.342,15.856,20.13Z" transform="translate(238.225 146.686)" fill="rgba(255,255,255,0.5)"/>
    <path id="Path_4" data-name="Path 4" d="M22.1,194.79l-10.2.089-1.593,4.84-6.968.061,9.65-27.411L20.7,172.3l10.125,27.24-7.046.061Zm-1.757-5.123-3.474-9.974-3.261,10.032Zm21.737-17.552.142,16.349a5.411,5.411,0,0,0,1.24,3.765,4.554,4.554,0,0,0,3.554,1.293,4.683,4.683,0,0,0,3.57-1.356A5.3,5.3,0,0,0,51.8,188.38l-.142-16.347,6.656-.058.142,16.308a11.607,11.607,0,0,1-1.5,6.2,9.94,9.94,0,0,1-4.171,3.849,14.009,14.009,0,0,1-11.638.141A9.615,9.615,0,0,1,37.1,194.7a12.288,12.288,0,0,1-1.533-6.213l-.142-16.311Zm42.51-.37.046,5.333-7.24.063.191,21.994-6.656.056L70.739,177.2l-7.24.063-.046-5.333Zm11.99,5.229.048,5.528,8.914-.078.045,5.138-8.914.078.052,5.995,10.082-.089.046,5.333-16.738.145L89.876,171.7l16.738-.145.046,5.331Zm40.986,21.639-6.656.056-11.279-16.758.147,16.856-6.656.058-.238-27.327,6.656-.056,11.28,16.836-.147-16.933,6.656-.058Zm26.191-27.556.046,5.333-7.24.063.191,21.992-6.656.058-.191-21.992-7.24.063-.047-5.333Zm11.943-.1.238,27.325-6.656.058-.238-27.325Zm16.9,27.452a14.044,14.044,0,0,1-5.38-.926,8.9,8.9,0,0,1-3.84-2.848,7.947,7.947,0,0,1-1.519-4.58l7.085-.061a3.523,3.523,0,0,0,1.071,2.327,3.436,3.436,0,0,0,2.342.757,3.734,3.734,0,0,0,2.33-.681,2.335,2.335,0,0,0,.84-1.916,2.2,2.2,0,0,0-.715-1.667,5.2,5.2,0,0,0-1.683-1.075,25.4,25.4,0,0,0-2.811-.949,30.918,30.918,0,0,1-4.335-1.6,7.994,7.994,0,0,1-2.9-2.39,6.72,6.72,0,0,1-1.243-4.154,7.109,7.109,0,0,1,2.712-5.98,11.292,11.292,0,0,1,7.182-2.243,11.413,11.413,0,0,1,7.3,2.117,7.678,7.678,0,0,1,3.011,5.969l-7.2.063a2.748,2.748,0,0,0-.991-2.054,3.367,3.367,0,0,0-2.3-.759,2.807,2.807,0,0,0-1.941.679,2.258,2.258,0,0,0-.724,1.836,2.293,2.293,0,0,0,1.264,2.052,20.39,20.39,0,0,0,3.906,1.561,34.568,34.568,0,0,1,4.3,1.676,8.138,8.138,0,0,1,2.9,2.349,6.355,6.355,0,0,1,1.242,4,7.772,7.772,0,0,1-1.17,4.254,8.183,8.183,0,0,1-3.4,3.067A11.788,11.788,0,0,1,192.6,198.406Zm31.848-.549-9.291-11.987.1,12.067-6.656.058-.237-27.327,6.656-.056.1,11.987,9.005-12.067,7.824-.067-10.471,13.482,11.1,13.841Z" transform="translate(0.734 190.789)" fill="rgba(255,255,255,0.5)" style="mix-blend-mode: lighten;isolation: isolate"/>
    <path id="Path_5" data-name="Path 5" d="M18.437,57.063v32.7q0,4.9,2.413,7.552t7.085,2.647q4.671,0,7.163-2.647t2.491-7.552v-32.7H50.9V89.684a23.192,23.192,0,0,1-3.114,12.379,19.888,19.888,0,0,1-8.408,7.63A26.073,26.073,0,0,1,27.7,112.262a26.25,26.25,0,0,1-11.6-2.491,19.232,19.232,0,0,1-8.019-7.63A24.583,24.583,0,0,1,5.124,89.684V57.063Zm66.182,0a31.79,31.79,0,0,1,15.1,3.426,24.149,24.149,0,0,1,9.965,9.654A27.8,27.8,0,0,1,113.27,84.39a28.065,28.065,0,0,1-3.581,14.247,24.038,24.038,0,0,1-10.043,9.654,31.616,31.616,0,0,1-15.026,3.426H64.144V57.063Zm-.856,43.131q7.552,0,11.756-4.126t4.2-11.678q0-7.552-4.2-11.756t-11.756-4.2H77.457v31.765Zm92.146-43.131-19.386,54.654H139.862L120.476,57.063h14.17l13.547,41.263,13.625-41.263Zm22.77,0v54.654H185.365V57.063Zm45.227,54.654L225.532,87.582v24.135H212.219V57.063h13.313V81.042L243.75,57.063H259.4L238.222,83.845l21.955,27.872Zm39.805-10.277H301.15v10.277H270.4V57.063h13.313Zm40.995-44.377v54.654H311.392V57.063Zm62.433,54.654H373.825L351.559,78.006v33.711H338.246V57.063h13.313l22.266,33.867V57.063h13.313Zm49.822-37.37a9.682,9.682,0,0,0-4.282-4.126,14.73,14.73,0,0,0-16.817,2.8q-3.893,4.2-3.893,11.289,0,7.552,4.048,11.834,4.126,4.2,11.289,4.2a13.436,13.436,0,0,0,8.253-2.491,14.024,14.024,0,0,0,4.983-7.163H423.647v-9.81h28.962V93.265a25.816,25.816,0,0,1-5.061,9.265,26.094,26.094,0,0,1-8.953,6.929,27.793,27.793,0,0,1-12.3,2.647,29.6,29.6,0,0,1-14.481-3.5,25.851,25.851,0,0,1-9.888-9.888,29.156,29.156,0,0,1-3.5-14.4,29.156,29.156,0,0,1,3.5-14.4,25.16,25.16,0,0,1,9.888-9.888,28.65,28.65,0,0,1,14.4-3.581q9.81,0,16.505,4.749a22.353,22.353,0,0,1,8.953,13.157Z" transform="translate(2.808 58.271)" fill="rgba(255,255,255,0.5)" style="mix-blend-mode: lighten;isolation: isolate"/>
    <path id="Path_6" data-name="Path 6" d="M58.319,89.235l-2.6,14.507H38.325L29.3,154.795H10.985l9.02-51.053H2.709l2.6-14.507Zm22.459,14.414-1.86,10.88H99.841l-2.511,13.856H76.407l-2.139,11.9H97.982l-2.511,14.507H53.438l11.624-65.56H107l-2.511,14.414ZM147.812,144.1H124.564l-5.394,10.694H100.014l35.43-65.56H156.46l12.275,65.56H149.486Zm-2.139-13.856-3.255-21.3-10.787,21.3Zm89.914-41.01-2.6,14.507h-17.39l-9.021,51.053h-18.32l9.02-51.053h-17.3l2.6-14.507Zm22.459,14.414-1.86,10.88h20.923L274.6,128.385H253.675l-2.139,11.9h23.713l-2.511,14.507H230.706l11.624-65.56h41.94l-2.511,14.414Zm63.966-14.414q10.322,0,15.716,4.65a15.143,15.143,0,0,1,5.394,12.182,21.545,21.545,0,0,1-.372,4.185,23.157,23.157,0,0,1-5.673,11.81,25.158,25.158,0,0,1-12.089,7.16l10.229,25.573H314.944L306.2,130.617H304.25l-4.278,24.178h-18.32l11.624-65.56Zm-15.53,28.921h9.02q7.253,0,8.555-6.881a11.266,11.266,0,0,0,.186-1.581,4.8,4.8,0,0,0-1.674-3.906,6.994,6.994,0,0,0-4.743-1.395h-9.02Zm92.725-28.921L396.7,103.742H370.471l-2.046,11.531h19.25l-2.418,13.856H366.008l-4.557,25.666h-18.32l11.624-65.56ZM422.6,103.649l-1.86,10.88h20.923l-2.511,13.856H418.229l-2.139,11.9H439.8l-2.511,14.507H395.259l11.624-65.56h41.94l-2.511,14.414Zm50.759,51.8q-11.344,0-18.32-4.65-6.88-4.743-6.882-13.763,0-.743.186-2.6h19.249a6.263,6.263,0,0,0,1.3,4.929,6.164,6.164,0,0,0,4.836,1.767,6.866,6.866,0,0,0,4.278-1.209,3.992,3.992,0,0,0,1.674-3.441,5.021,5.021,0,0,0-2.418-4.278,41.514,41.514,0,0,0-7.625-3.906,84.566,84.566,0,0,1-8.741-4.185,20.005,20.005,0,0,1-5.952-5.487,14.707,14.707,0,0,1-2.511-8.741,19.913,19.913,0,0,1,3.348-11.624,20.614,20.614,0,0,1,9.3-7.439,34.494,34.494,0,0,1,13.763-2.6,32.12,32.12,0,0,1,12.368,2.232,18.427,18.427,0,0,1,8.369,6.23,15.665,15.665,0,0,1,3.069,9.671,19.441,19.441,0,0,1-.093,2.232H482.936a6.954,6.954,0,0,0,.093-1.3,4.307,4.307,0,0,0-1.395-3.441,5.365,5.365,0,0,0-3.813-1.3,6.229,6.229,0,0,0-4.092,1.3,4.184,4.184,0,0,0-1.488,3.441,5.162,5.162,0,0,0,2.325,4.185,53.057,53.057,0,0,0,7.439,4,73.445,73.445,0,0,1,8.834,4.743,19.764,19.764,0,0,1,6.045,5.766,15.3,15.3,0,0,1,2.511,8.927,18.685,18.685,0,0,1-3.162,10.6,21.4,21.4,0,0,1-9.02,7.346A33.888,33.888,0,0,1,473.358,155.446Zm92.606-66.211-2.6,14.507H545.97l-9.02,51.053H518.63l9.02-51.053h-17.3l2.6-14.507Zm24.972,0L579.4,154.795h-18.32l11.624-65.56Zm25.071,0,6.509,47.24,23.155-47.24h19.436l-34.221,65.56H607.637l-11.066-65.56ZM702.59,144.1H679.341l-5.393,10.694H654.791l35.43-65.56h21.016l12.275,65.56H704.263Zm-2.139-13.856-3.255-21.3-10.787,21.3Zm49.74,10.694h20.365l-2.511,13.856H729.361l11.624-65.56h18.227Z" transform="translate(0 95.209)" fill="#c8ffa3" style="mix-blend-mode: lighten;isolation: isolate"/>
    <path id="Path_7" data-name="Path 7" d="M257.343,103.036h-9.985l-16.7-25.283v25.283h-9.985V62.046h9.985l16.7,25.4v-25.4h9.985ZM276.9,70.046v8.291h13.371v7.708H276.9v8.992h15.123v8H266.917V62.046h25.108v8Zm53.428-8v8H319.469v32.991h-9.985V70.046H298.624v-8Zm45.826,0-14.539,40.99h-12.5l-14.539-40.99h10.627l10.16,30.947,10.218-30.947Zm41.018,7.883v8.408H430.2v7.591H417.174v9.226h14.773v7.883H407.189v-6.89H393.7l-3.5,6.89H379.4l20.962-40.99h31.589v7.883Zm-9.985,18.627V69.462l-9.634,19.094Zm54.483,14.481-8.525-15.474h-2.394v15.474h-9.985V62.046h16.758a18.261,18.261,0,0,1,8.233,1.693,11.582,11.582,0,0,1,5.138,4.671,12.8,12.8,0,0,1,1.693,6.54,12.1,12.1,0,0,1-2.336,7.3,12.267,12.267,0,0,1-6.773,4.554l9.459,16.233ZM450.753,80.5h6.189a5.56,5.56,0,0,0,4.087-1.343,5.009,5.009,0,0,0,1.4-3.8,4.854,4.854,0,0,0-1.4-3.679,5.56,5.56,0,0,0-4.087-1.343h-6.189Zm54.206,22.539-13.78-18.1v18.1h-9.985V62.046h9.985V80.03l13.663-17.984h11.737L500.7,82.132l16.466,20.9Z" transform="translate(253.411 64.788)" fill="rgba(255,255,255,0.5)" style="mix-blend-mode: lighten;isolation: isolate"/>
    <path id="Path_8" data-name="Path 8" d="M147.56,162.6v9.185H128.386v9.922h14.347v8.916H128.386v19.04H116.922V162.6Zm28.283,47.532a24.741,24.741,0,0,1-12.2-3.084,23.445,23.445,0,0,1-8.782-8.581A24.448,24.448,0,0,1,151.641,186a24.09,24.09,0,0,1,3.218-12.4,23.445,23.445,0,0,1,8.782-8.581,24.741,24.741,0,0,1,12.2-3.084,24.37,24.37,0,0,1,12.134,3.084,22.341,22.341,0,0,1,8.715,8.581A24.091,24.091,0,0,1,199.91,186a24.448,24.448,0,0,1-3.218,12.47,22.946,22.946,0,0,1-8.715,8.581A24.37,24.37,0,0,1,175.843,210.131Zm0-10.458a11.447,11.447,0,0,0,8.984-3.754q3.419-3.753,3.419-9.922,0-6.235-3.419-9.922a11.447,11.447,0,0,0-8.984-3.754,11.835,11.835,0,0,0-9.118,3.687q-3.351,3.688-3.352,9.989,0,6.235,3.352,9.989A11.835,11.835,0,0,0,175.843,199.672Zm54.446,9.989L220.5,191.9h-2.749v17.766H206.288V162.6h19.241a20.968,20.968,0,0,1,9.453,1.944,13.282,13.282,0,0,1,5.9,5.363,14.676,14.676,0,0,1,1.944,7.509,13.884,13.884,0,0,1-2.682,8.38,14.072,14.072,0,0,1-7.777,5.229l10.861,18.637Zm-12.537-25.878h7.106a6.383,6.383,0,0,0,4.693-1.542,5.75,5.75,0,0,0,1.609-4.358,5.571,5.571,0,0,0-1.609-4.224,6.383,6.383,0,0,0-4.693-1.542h-7.106Zm43.735-12v9.52h15.352v8.849H261.487v10.324H278.85v9.185H250.023V162.6H278.85v9.185Zm41.834,38.348a24.2,24.2,0,0,1-9.252-1.676,15.327,15.327,0,0,1-6.57-4.961,13.7,13.7,0,0,1-2.548-7.911h12.2a6.062,6.062,0,0,0,1.81,4.022,5.918,5.918,0,0,0,4.022,1.341,6.42,6.42,0,0,0,4.023-1.14,4.016,4.016,0,0,0,1.475-3.285,3.8,3.8,0,0,0-1.207-2.883,8.925,8.925,0,0,0-2.883-1.877,43.348,43.348,0,0,0-4.827-1.676,52.986,52.986,0,0,1-7.442-2.816,13.774,13.774,0,0,1-4.961-4.157,11.589,11.589,0,0,1-2.078-7.173,12.247,12.247,0,0,1,4.76-10.257q4.762-3.753,12.4-3.754,7.779,0,12.537,3.754a13.212,13.212,0,0,1,5.1,10.324h-12.4a4.732,4.732,0,0,0-1.676-3.553,5.812,5.812,0,0,0-3.955-1.341,4.845,4.845,0,0,0-3.352,1.14,3.892,3.892,0,0,0-1.274,3.151,3.949,3.949,0,0,0,2.145,3.553,35.224,35.224,0,0,0,6.7,2.749,59.527,59.527,0,0,1,7.375,2.95,13.986,13.986,0,0,1,4.961,4.09,10.944,10.944,0,0,1,2.078,6.905,13.383,13.383,0,0,1-2.078,7.307,14.072,14.072,0,0,1-5.9,5.229A20.314,20.314,0,0,1,303.321,210.131ZM361.4,162.6v9.185h-12.47v37.878H337.462V171.783h-12.47V162.6Zm17.217,0v47.063H367.148V162.6Zm19.773,38.214H413.4v8.849H386.921V162.6h11.464Zm31.948,0h15.017v8.849H418.869V162.6h11.464ZM462.284,162.6v47.063H450.82V162.6Zm50.409,47.063H501.229l-19.174-29.029v29.029H470.591V162.6h11.464l19.174,29.163V162.6h11.464Zm39.552-32.18a8.344,8.344,0,0,0-3.687-3.553,12.684,12.684,0,0,0-14.481,2.413q-3.354,3.62-3.352,9.721,0,6.5,3.486,10.19,3.552,3.62,9.721,3.62a11.575,11.575,0,0,0,7.106-2.145,12.086,12.086,0,0,0,4.291-6.168H540.781v-8.447H565.72v10.66a23.014,23.014,0,0,1-12.067,13.945A23.93,23.93,0,0,1,543.06,210a25.48,25.48,0,0,1-12.47-3.017,22.255,22.255,0,0,1-8.514-8.514,27,27,0,0,1,0-24.805,21.651,21.651,0,0,1,8.514-8.514,24.66,24.66,0,0,1,12.4-3.084q8.447,0,14.213,4.089a19.254,19.254,0,0,1,7.71,11.33Zm31.289-5.7v9.52h15.352v8.849H583.534v10.324H600.9v9.185H572.07V162.6H600.9v9.185Zm48.806,37.878L622.552,191.9H619.8v17.766H608.339V162.6H627.58a20.968,20.968,0,0,1,9.453,1.944,13.282,13.282,0,0,1,5.9,5.363,14.676,14.676,0,0,1,1.944,7.509,13.884,13.884,0,0,1-2.682,8.38,14.072,14.072,0,0,1-7.777,5.229l10.861,18.637ZM619.8,183.783h7.106a6.383,6.383,0,0,0,4.693-1.542,5.75,5.75,0,0,0,1.609-4.358,5.571,5.571,0,0,0-1.609-4.224,6.383,6.383,0,0,0-4.693-1.542H619.8Z" transform="translate(132.786 180.913)" fill="rgba(255,255,255,0.5)" style="mix-blend-mode: lighten;isolation: isolate"/>
    <path id="Path_9" data-name="Path 9" d="M47.6,75.485H36.51L17.954,47.392V75.485H6.86V29.94H17.954L36.51,58.162V29.94H47.6ZM94.7,29.94,78.937,60.433V75.485H67.843V60.433L52.077,29.94H64.664l8.823,19.074L82.246,29.94Zm37.234,0v8.888H119.869V75.485H108.775V38.828H96.707V29.94ZM175.848,38.7v9.343h14.468v8.434H175.848V66.726h16.414v8.759H164.753V67.829H149.766l-3.893,7.656h-12L157.163,29.94h35.1V38.7Zm-11.094,20.7V38.18l-10.7,21.215Zm75.46,16.09H229.119L210.564,47.392V75.485h-11.1V29.94h11.1l18.555,28.222V29.94h11.094Zm34.446,0L259.348,55.372V75.485H248.254V29.94h11.094V49.923L274.53,29.94H287.57L269.923,52.258l18.3,23.227Zm29.926-36.656v9.213h14.857v8.564H304.586V66.6h16.8v8.888h-27.9V29.94h27.9v8.888Zm64.751,36.656H358.243L339.687,47.392V75.485H328.593V29.94h11.094l18.555,28.222V29.94h11.094Zm25.1-45.545a26.491,26.491,0,0,1,12.586,2.855,20.124,20.124,0,0,1,8.3,8.045,23.163,23.163,0,0,1,2.984,11.873,23.387,23.387,0,0,1-2.984,11.873,20.032,20.032,0,0,1-8.369,8.045,26.347,26.347,0,0,1-12.522,2.855H377.378V29.94Zm-.714,35.943q6.293,0,9.8-3.439t3.5-9.732q0-6.293-3.5-9.8t-9.8-3.5h-5.255v26.47Zm41.884-27.054v9.213h14.857v8.564H435.611V66.6h16.8v8.888h-27.9V29.94h27.9v8.888Z" transform="translate(4.826 27.461)" fill="rgba(255,255,255,0.5)" style="mix-blend-mode: lighten;isolation: isolate"/>
    <path id="Path_10" data-name="Path 10" d="M28.382,186.717a31.224,31.224,0,0,1-11.938-2.163,19.76,19.76,0,0,1-8.477-6.4A17.666,17.666,0,0,1,4.68,167.945H20.424a7.814,7.814,0,0,0,2.336,5.19,7.629,7.629,0,0,0,5.19,1.73,8.291,8.291,0,0,0,5.19-1.471,5.184,5.184,0,0,0,1.9-4.239,4.9,4.9,0,0,0-1.557-3.72,11.546,11.546,0,0,0-3.72-2.422,56.218,56.218,0,0,0-6.228-2.163,68.3,68.3,0,0,1-9.6-3.633,17.749,17.749,0,0,1-6.4-5.363A14.943,14.943,0,0,1,4.853,142.6q0-8.476,6.142-13.235,6.142-4.843,16-4.844,10.034,0,16.176,4.844,6.142,4.759,6.574,13.322h-16a6.116,6.116,0,0,0-2.163-4.585,7.5,7.5,0,0,0-5.1-1.73,6.246,6.246,0,0,0-4.325,1.471,5.016,5.016,0,0,0-1.644,4.066,5.093,5.093,0,0,0,2.768,4.585,45.377,45.377,0,0,0,8.65,3.547,76.959,76.959,0,0,1,9.516,3.806,18.073,18.073,0,0,1,6.4,5.277,14.126,14.126,0,0,1,2.682,8.91,17.275,17.275,0,0,1-2.682,9.429,18.167,18.167,0,0,1-7.612,6.747A26.217,26.217,0,0,1,28.382,186.717Zm77.529-41.782a19.8,19.8,0,0,1-2.422,9.689,17.908,17.908,0,0,1-7.439,7.007,26.182,26.182,0,0,1-12.457,2.682h-9.17v21.8H59.631V125.385H83.593a27.279,27.279,0,0,1,12.284,2.509,17.239,17.239,0,0,1,7.526,6.92A20.115,20.115,0,0,1,105.911,144.935Zm-23.443,7.612q4.239,0,6.315-1.99a8.652,8.652,0,0,0,0-11.246q-2.076-1.989-6.315-1.99H74.423v15.225ZM128.4,125.385v60.726H113.612V125.385Zm41.689,60.726-12.63-22.924h-3.547v22.924H139.124V125.385h24.827a27.063,27.063,0,0,1,12.2,2.509,17.154,17.154,0,0,1,7.612,6.92,18.956,18.956,0,0,1,2.509,9.689,17.921,17.921,0,0,1-3.46,10.813,18.166,18.166,0,0,1-10.035,6.747l14.014,24.048Zm-16.176-33.391h9.17q4.066,0,6.055-1.99a7.42,7.42,0,0,0,2.076-5.623,7.19,7.19,0,0,0-2.076-5.45q-1.99-1.989-6.055-1.99h-9.17Zm56.431-15.484V149.52h19.81v11.419h-19.81V174.26h22.4v11.851h-37.2V125.385h37.2v11.851Zm86.334,48.875H281.889l-24.74-37.457v37.457H242.356V125.385h14.792l24.74,37.63v-37.63h14.792Zm33.473-60.726a35.334,35.334,0,0,1,16.782,3.806,26.836,26.836,0,0,1,11.073,10.727,33.479,33.479,0,0,1,0,31.661,26.709,26.709,0,0,1-11.159,10.727,35.144,35.144,0,0,1-16.7,3.806H307.4V125.385Zm-.952,47.924q8.389,0,13.062-4.585t4.671-12.976q0-8.392-4.671-13.062T329.2,138.015H322.2v35.294Zm55.843-36.073V149.52h19.81v11.419h-19.81V174.26h22.4v11.851h-37.2V125.385h37.2v11.851Z" transform="translate(2.292 137.422)" fill="rgba(255,255,255,0.4)" style="mix-blend-mode: lighten;isolation: isolate"/>
    <path id="Path_11" data-name="Path 11" d="M254.866,76.6h19.377V88.018H240.074V27.292h14.792ZM296.09,27.292V88.018H281.3V27.292Zm67.727,0-21.54,60.726H323.765l-21.54-60.726h15.744L333.021,73.14,348.16,27.292ZM384.792,76.6h19.377V88.018H370V27.292h14.792Zm41.224-49.308V88.018H411.224V27.292Zm51.031,19.2a10.751,10.751,0,0,0-4.758-4.585A16.366,16.366,0,0,0,453.6,45.026q-4.324,4.671-4.325,12.543,0,8.391,4.5,13.149,4.587,4.671,12.543,4.671a14.926,14.926,0,0,0,9.169-2.768,15.569,15.569,0,0,0,5.536-7.958H462.255v-10.9h32.18V67.517a28.65,28.65,0,0,1-5.623,10.294,28.987,28.987,0,0,1-9.948,7.7A30.875,30.875,0,0,1,465.2,88.451a32.892,32.892,0,0,1-16.09-3.893A28.729,28.729,0,0,1,438.12,73.572a32.4,32.4,0,0,1-3.893-16,32.4,32.4,0,0,1,3.893-16,27.96,27.96,0,0,1,10.986-10.986,31.835,31.835,0,0,1,16-3.979q10.9,0,18.339,5.277A24.83,24.83,0,0,1,493.4,46.5Z" transform="translate(275.966 23.578)" fill="rgba(255,255,255,0.5)" style="mix-blend-mode: lighten;isolation: isolate"/>
  </g>
</svg>
