<svg width="364" height="213" viewBox="0 0 364 213" fill="none" xmlns="http://www.w3.org/2000/svg">
<path d="M238.815 196.47L235.08 207H231.87L228.135 196.47H230.865L233.475 204.42L236.1 196.47H238.815ZM248.752 198.495V200.655H252.097V202.605H248.752V204.975H252.547V207H246.187V205.23H242.722L241.822 207H239.047L244.432 196.47H252.547V198.495H248.752ZM246.187 203.28V198.375L243.712 203.28H246.187ZM259.583 207L257.393 203.025H256.778V207H254.213V196.47H258.518C259.348 196.47 260.053 196.615 260.633 196.905C261.223 197.195 261.663 197.595 261.953 198.105C262.243 198.605 262.388 199.165 262.388 199.785C262.388 200.485 262.188 201.11 261.788 201.66C261.398 202.21 260.818 202.6 260.048 202.83L262.478 207H259.583ZM256.778 201.21H258.368C258.838 201.21 259.188 201.095 259.418 200.865C259.658 200.635 259.778 200.31 259.778 199.89C259.778 199.49 259.658 199.175 259.418 198.945C259.188 198.715 258.838 198.6 258.368 198.6H256.778V201.21ZM279.102 196.47V207H276.537V200.685L274.182 207H272.112L269.742 200.67V207H267.177V196.47H270.207L273.162 203.76L276.087 196.47H279.102ZM283.512 198.525V200.655H286.947V202.635H283.512V204.945H287.397V207H280.947V196.47H287.397V198.525H283.512ZM293.007 196.47C294.117 196.47 295.087 196.69 295.917 197.13C296.747 197.57 297.387 198.19 297.837 198.99C298.297 199.78 298.527 200.695 298.527 201.735C298.527 202.765 298.297 203.68 297.837 204.48C297.387 205.28 296.742 205.9 295.902 206.34C295.072 206.78 294.107 207 293.007 207H289.062V196.47H293.007ZM292.842 204.78C293.812 204.78 294.567 204.515 295.107 203.985C295.647 203.455 295.917 202.705 295.917 201.735C295.917 200.765 295.647 200.01 295.107 199.47C294.567 198.93 293.812 198.66 292.842 198.66H291.627V204.78H292.842ZM302.72 204.63L301.055 208.935H299.42L300.29 204.63H302.72ZM311.256 207.105C310.486 207.105 309.796 206.98 309.186 206.73C308.576 206.48 308.086 206.11 307.716 205.62C307.356 205.13 307.166 204.54 307.146 203.85H309.876C309.916 204.24 310.051 204.54 310.281 204.75C310.511 204.95 310.811 205.05 311.181 205.05C311.561 205.05 311.861 204.965 312.081 204.795C312.301 204.615 312.411 204.37 312.411 204.06C312.411 203.8 312.321 203.585 312.141 203.415C311.971 203.245 311.756 203.105 311.496 202.995C311.246 202.885 310.886 202.76 310.416 202.62C309.736 202.41 309.181 202.2 308.751 201.99C308.321 201.78 307.951 201.47 307.641 201.06C307.331 200.65 307.176 200.115 307.176 199.455C307.176 198.475 307.531 197.71 308.241 197.16C308.951 196.6 309.876 196.32 311.016 196.32C312.176 196.32 313.111 196.6 313.821 197.16C314.531 197.71 314.911 198.48 314.961 199.47H312.186C312.166 199.13 312.041 198.865 311.811 198.675C311.581 198.475 311.286 198.375 310.926 198.375C310.616 198.375 310.366 198.46 310.176 198.63C309.986 198.79 309.891 199.025 309.891 199.335C309.891 199.675 310.051 199.94 310.371 200.13C310.691 200.32 311.191 200.525 311.871 200.745C312.551 200.975 313.101 201.195 313.521 201.405C313.951 201.615 314.321 201.92 314.631 202.32C314.941 202.72 315.096 203.235 315.096 203.865C315.096 204.465 314.941 205.01 314.631 205.5C314.331 205.99 313.891 206.38 313.311 206.67C312.731 206.96 312.046 207.105 311.256 207.105ZM319.239 198.525V200.655H322.674V202.635H319.239V204.945H323.124V207H316.674V196.47H323.124V198.525H319.239ZM339.893 196.47V207H337.328V200.685L334.973 207H332.903L330.533 200.67V207H327.968V196.47H330.998L333.953 203.76L336.878 196.47H339.893ZM344.303 198.525V200.655H347.738V202.635H344.303V204.945H348.188V207H341.738V196.47H348.188V198.525H344.303ZM353.798 196.47C354.908 196.47 355.878 196.69 356.708 197.13C357.538 197.57 358.178 198.19 358.628 198.99C359.088 199.78 359.318 200.695 359.318 201.735C359.318 202.765 359.088 203.68 358.628 204.48C358.178 205.28 357.533 205.9 356.693 206.34C355.863 206.78 354.898 207 353.798 207H349.853V196.47H353.798ZM353.633 204.78C354.603 204.78 355.358 204.515 355.898 203.985C356.438 203.455 356.708 202.705 356.708 201.735C356.708 200.765 356.438 200.01 355.898 199.47C355.358 198.93 354.603 198.66 353.633 198.66H352.418V204.78H353.633Z" fill="white" fill-opacity="0.81"/>
<path d="M13.815 6.47L10.08 17H6.87L3.135 6.47H5.865L8.475 14.42L11.1 6.47H13.815ZM17.452 6.47V17H14.887V6.47H17.452ZM21.8759 15.02H25.2359V17H19.3109V6.47H21.8759V15.02ZM30.4043 6.47C31.5143 6.47 32.4843 6.69 33.3143 7.13C34.1443 7.57 34.7843 8.19 35.2343 8.99C35.6943 9.78 35.9243 10.695 35.9243 11.735C35.9243 12.765 35.6943 13.68 35.2343 14.48C34.7843 15.28 34.1393 15.9 33.2993 16.34C32.4693 16.78 31.5043 17 30.4043 17H26.4593V6.47H30.4043ZM30.2393 14.78C31.2093 14.78 31.9643 14.515 32.5043 13.985C33.0443 13.455 33.3143 12.705 33.3143 11.735C33.3143 10.765 33.0443 10.01 32.5043 9.47C31.9643 8.93 31.2093 8.66 30.2393 8.66H29.0243V14.78H30.2393ZM41.1677 17.105C40.3977 17.105 39.7077 16.98 39.0977 16.73C38.4877 16.48 37.9977 16.11 37.6277 15.62C37.2677 15.13 37.0777 14.54 37.0577 13.85H39.7877C39.8277 14.24 39.9627 14.54 40.1927 14.75C40.4227 14.95 40.7227 15.05 41.0927 15.05C41.4727 15.05 41.7727 14.965 41.9927 14.795C42.2127 14.615 42.3227 14.37 42.3227 14.06C42.3227 13.8 42.2327 13.585 42.0527 13.415C41.8827 13.245 41.6677 13.105 41.4077 12.995C41.1577 12.885 40.7977 12.76 40.3277 12.62C39.6477 12.41 39.0927 12.2 38.6627 11.99C38.2327 11.78 37.8627 11.47 37.5527 11.06C37.2427 10.65 37.0877 10.115 37.0877 9.455C37.0877 8.475 37.4427 7.71 38.1527 7.16C38.8627 6.6 39.7877 6.32 40.9277 6.32C42.0877 6.32 43.0227 6.6 43.7327 7.16C44.4427 7.71 44.8227 8.48 44.8727 9.47H42.0977C42.0777 9.13 41.9527 8.865 41.7227 8.675C41.4927 8.475 41.1977 8.375 40.8377 8.375C40.5277 8.375 40.2777 8.46 40.0877 8.63C39.8977 8.79 39.8027 9.025 39.8027 9.335C39.8027 9.675 39.9627 9.94 40.2827 10.13C40.6027 10.32 41.1027 10.525 41.7827 10.745C42.4627 10.975 43.0127 11.195 43.4327 11.405C43.8627 11.615 44.2327 11.92 44.5427 12.32C44.8527 12.72 45.0077 13.235 45.0077 13.865C45.0077 14.465 44.8527 15.01 44.5427 15.5C44.2427 15.99 43.8027 16.38 43.2227 16.67C42.6427 16.96 41.9577 17.105 41.1677 17.105ZM52.6913 17L49.1513 12.35V17H46.5863V6.47H49.1513V11.09L52.6613 6.47H55.6763L51.5963 11.63L55.8263 17H52.6913ZM59.5652 6.47V12.77C59.5652 13.4 59.7202 13.885 60.0302 14.225C60.3402 14.565 60.7952 14.735 61.3952 14.735C61.9952 14.735 62.4552 14.565 62.7752 14.225C63.0952 13.885 63.2552 13.4 63.2552 12.77V6.47H65.8202V12.755C65.8202 13.695 65.6202 14.49 65.2202 15.14C64.8202 15.79 64.2802 16.28 63.6002 16.61C62.9302 16.94 62.1802 17.105 61.3502 17.105C60.5202 17.105 59.7752 16.945 59.1152 16.625C58.4652 16.295 57.9502 15.805 57.5702 15.155C57.1902 14.495 57.0002 13.695 57.0002 12.755V6.47H59.5652ZM71.5664 6.47C72.6764 6.47 73.6464 6.69 74.4764 7.13C75.3064 7.57 75.9464 8.19 76.3964 8.99C76.8564 9.78 77.0864 10.695 77.0864 11.735C77.0864 12.765 76.8564 13.68 76.3964 14.48C75.9464 15.28 75.3014 15.9 74.4614 16.34C73.6314 16.78 72.6664 17 71.5664 17H67.6214V6.47H71.5664ZM71.4014 14.78C72.3714 14.78 73.1264 14.515 73.6664 13.985C74.2064 13.455 74.4764 12.705 74.4764 11.735C74.4764 10.765 74.2064 10.01 73.6664 9.47C73.1264 8.93 72.3714 8.66 71.4014 8.66H70.1864V14.78H71.4014ZM84.2636 8.525V10.655H87.6986V12.635H84.2636V14.945H88.1486V17H81.6986V6.47H88.1486V8.525H84.2636ZM95.1838 17L92.9938 13.025H92.3788V17H89.8138V6.47H94.1188C94.9488 6.47 95.6538 6.615 96.2338 6.905C96.8238 7.195 97.2638 7.595 97.5538 8.105C97.8438 8.605 97.9888 9.165 97.9888 9.785C97.9888 10.485 97.7888 11.11 97.3888 11.66C96.9988 12.21 96.4188 12.6 95.6488 12.83L98.0788 17H95.1838ZM92.3788 11.21H93.9688C94.4388 11.21 94.7888 11.095 95.0188 10.865C95.2588 10.635 95.3788 10.31 95.3788 9.89C95.3788 9.49 95.2588 9.175 95.0188 8.945C94.7888 8.715 94.4388 8.6 93.9688 8.6H92.3788V11.21Z" fill="white" fill-opacity="0.81"/>
<path d="M214.45 132.748C216.374 132.748 218.055 133.129 219.494 133.892C220.933 134.655 222.042 135.729 222.822 137.116C223.619 138.485 224.018 140.071 224.018 141.874C224.018 143.659 223.619 145.245 222.822 146.632C222.042 148.019 220.924 149.093 219.468 149.856C218.029 150.619 216.357 151 214.45 151H207.612V132.748H214.45ZM214.164 147.152C215.845 147.152 217.154 146.693 218.09 145.774C219.026 144.855 219.494 143.555 219.494 141.874C219.494 140.193 219.026 138.884 218.09 137.948C217.154 137.012 215.845 136.544 214.164 136.544H212.058V147.152H214.164ZM235.811 151L232.015 144.11H230.949V151H226.503V132.748H233.965C235.403 132.748 236.625 132.999 237.631 133.502C238.653 134.005 239.416 134.698 239.919 135.582C240.421 136.449 240.673 137.419 240.673 138.494C240.673 139.707 240.326 140.791 239.633 141.744C238.957 142.697 237.951 143.373 236.617 143.772L240.829 151H235.811ZM230.949 140.964H233.705C234.519 140.964 235.126 140.765 235.525 140.366C235.941 139.967 236.149 139.404 236.149 138.676C236.149 137.983 235.941 137.437 235.525 137.038C235.126 136.639 234.519 136.44 233.705 136.44H230.949V140.964ZM254.826 147.776H248.014L246.922 151H242.268L248.872 132.748H254.02L260.624 151H255.918L254.826 147.776ZM253.682 144.344L251.42 137.662L249.184 144.344H253.682ZM283.303 132.748V151H278.857V140.054L274.775 151H271.187L267.079 140.028V151H262.633V132.748H267.885L273.007 145.384L278.077 132.748H283.303ZM297.863 147.776H291.051L289.959 151H285.305L291.909 132.748H297.057L303.661 151H298.955L297.863 147.776ZM296.719 144.344L294.457 137.662L292.221 144.344H296.719ZM318.801 132.748V136.31H313.965V151H309.519V136.31H304.683V132.748H318.801ZM325.478 132.748V151H321.032V132.748H325.478ZM335.304 151.182C333.969 151.182 332.773 150.965 331.716 150.532C330.659 150.099 329.809 149.457 329.168 148.608C328.544 147.759 328.215 146.736 328.18 145.54H332.912C332.981 146.216 333.215 146.736 333.614 147.1C334.013 147.447 334.533 147.62 335.174 147.62C335.833 147.62 336.353 147.473 336.734 147.178C337.115 146.866 337.306 146.441 337.306 145.904C337.306 145.453 337.15 145.081 336.838 144.786C336.543 144.491 336.171 144.249 335.72 144.058C335.287 143.867 334.663 143.651 333.848 143.408C332.669 143.044 331.707 142.68 330.962 142.316C330.217 141.952 329.575 141.415 329.038 140.704C328.501 139.993 328.232 139.066 328.232 137.922C328.232 136.223 328.847 134.897 330.078 133.944C331.309 132.973 332.912 132.488 334.888 132.488C336.899 132.488 338.519 132.973 339.75 133.944C340.981 134.897 341.639 136.232 341.726 137.948H336.916C336.881 137.359 336.665 136.899 336.266 136.57C335.867 136.223 335.356 136.05 334.732 136.05C334.195 136.05 333.761 136.197 333.432 136.492C333.103 136.769 332.938 137.177 332.938 137.714C332.938 138.303 333.215 138.763 333.77 139.092C334.325 139.421 335.191 139.777 336.37 140.158C337.549 140.557 338.502 140.938 339.23 141.302C339.975 141.666 340.617 142.195 341.154 142.888C341.691 143.581 341.96 144.474 341.96 145.566C341.96 146.606 341.691 147.551 341.154 148.4C340.634 149.249 339.871 149.925 338.866 150.428C337.861 150.931 336.673 151.182 335.304 151.182ZM355.278 151L349.142 142.94V151H344.696V132.748H349.142V140.756L355.226 132.748H360.452L353.38 141.692L360.712 151H355.278Z" fill="white" fill-opacity="0.5"/>
<path d="M12.0144 181.69L7.2986 181.731L6.56204 183.969L3.34016 183.997L7.80211 171.322L11.366 171.291L16.0477 183.887L12.7898 183.915L12.0144 181.69ZM11.2018 179.321L9.59563 174.709L8.08791 179.348L11.2018 179.321ZM21.2531 171.205L21.3188 178.765C21.3254 179.521 21.5165 180.101 21.892 180.506C22.2675 180.911 22.8153 181.11 23.5352 181.104C24.2552 181.097 24.8054 180.889 25.1859 180.477C25.5663 180.066 25.7532 179.482 25.7467 178.726L25.6809 171.167L28.7588 171.14L28.8244 178.681C28.8342 179.809 28.6025 180.765 28.1293 181.55C27.6561 182.334 27.0132 182.927 26.2007 183.33C25.4002 183.733 24.5019 183.939 23.506 183.948C22.51 183.957 21.6144 183.772 20.8191 183.395C20.0357 183.006 19.4126 182.423 18.9498 181.647C18.4869 180.859 18.2506 179.901 18.2408 178.774L18.1752 171.232L21.2531 171.205ZM40.9098 171.034L40.9312 173.5L37.5833 173.529L37.6718 183.699L34.5939 183.725L34.5054 173.556L31.1576 173.585L31.1361 171.119L40.9098 171.034ZM46.4538 173.452L46.476 176.008L50.5978 175.972L50.6185 178.348L46.4966 178.384L46.5207 181.156L51.1826 181.115L51.204 183.581L43.4643 183.648L43.3544 171.013L51.0941 170.946L51.1156 173.411L46.4538 173.452ZM65.4058 183.458L62.3279 183.484L57.1123 175.735L57.1801 183.529L54.1022 183.556L53.9923 170.92L57.0702 170.894L62.2861 178.679L62.218 170.849L65.2959 170.822L65.4058 183.458ZM77.5166 170.716L77.538 173.182L74.1901 173.211L74.2786 183.38L71.2007 183.407L71.1123 173.238L67.7644 173.267L67.7429 170.801L77.5166 170.716ZM83.0391 170.668L83.149 183.303L80.0711 183.33L79.9612 170.695L83.0391 170.668ZM90.8524 183.362C89.9284 183.37 89.0992 183.228 88.3646 182.934C87.63 182.64 87.0382 182.201 86.5891 181.617C86.152 181.033 85.9178 180.327 85.8866 179.499L89.1625 179.471C89.2146 179.938 89.3797 180.297 89.6579 180.547C89.936 180.784 90.297 180.901 90.741 180.897C91.1969 180.893 91.556 180.788 91.8183 180.582C92.0804 180.364 92.2098 180.068 92.2066 179.696C92.2039 179.384 92.0936 179.127 91.8759 178.925C91.6701 178.723 91.4106 178.557 91.0975 178.428C90.7964 178.299 90.3631 178.152 89.7976 177.989C88.9795 177.744 88.3113 177.498 87.7931 177.251C87.275 177.003 86.8278 176.635 86.4515 176.146C86.0752 175.658 85.8837 175.017 85.8768 174.225C85.8665 173.049 86.2845 172.128 87.1308 171.46C87.9769 170.781 89.0839 170.435 90.4519 170.423C91.8438 170.411 92.9687 170.737 93.8265 171.402C94.6842 172.055 95.1482 172.975 95.2186 174.162L91.8887 174.191C91.8612 173.783 91.7084 173.466 91.4304 173.241C91.1523 173.003 90.7973 172.886 90.3653 172.89C89.9933 172.893 89.6942 172.998 89.468 173.204C89.2417 173.398 89.1302 173.681 89.1334 174.053C89.1369 174.461 89.3317 174.777 89.7177 175.002C90.1036 175.227 90.7058 175.467 91.524 175.724C92.3424 175.993 93.0047 176.251 93.5108 176.499C94.029 176.746 94.4762 177.109 94.8523 177.585C95.2285 178.062 95.4199 178.678 95.4264 179.434C95.4327 180.154 95.2524 180.81 94.8855 181.401C94.5306 181.992 94.0067 182.465 93.3138 182.819C92.6208 183.173 91.8004 183.354 90.8524 183.362ZM105.579 183.108L101.283 177.565L101.331 183.145L98.2532 183.172L98.1434 170.536L101.221 170.51L101.269 176.053L105.433 170.473L109.051 170.442L104.209 176.676L109.341 183.076L105.579 183.108Z" fill="white" fill-opacity="0.5" style="mix-blend-mode:lighten"/>
<path d="M11.28 56.728V71.848C11.28 73.36 11.652 74.524 12.396 75.34C13.14 76.156 14.232 76.564 15.672 76.564C17.112 76.564 18.216 76.156 18.984 75.34C19.752 74.524 20.136 73.36 20.136 71.848V56.728H26.292V71.812C26.292 74.068 25.812 75.976 24.852 77.536C23.892 79.096 22.596 80.272 20.964 81.064C19.356 81.856 17.556 82.252 15.564 82.252C13.572 82.252 11.784 81.868 10.2 81.1C8.64 80.308 7.404 79.132 6.492 77.572C5.58 75.988 5.124 74.068 5.124 71.812V56.728H11.28ZM41.8828 56.728C44.5468 56.728 46.8748 57.256 48.8668 58.312C50.8588 59.368 52.3948 60.856 53.4748 62.776C54.5788 64.672 55.1308 66.868 55.1308 69.364C55.1308 71.836 54.5788 74.032 53.4748 75.952C52.3948 77.872 50.8468 79.36 48.8308 80.416C46.8388 81.472 44.5228 82 41.8828 82H32.4148V56.728H41.8828ZM41.4868 76.672C43.8148 76.672 45.6268 76.036 46.9228 74.764C48.2188 73.492 48.8668 71.692 48.8668 69.364C48.8668 67.036 48.2188 65.224 46.9228 63.928C45.6268 62.632 43.8148 61.984 41.4868 61.984H38.5708V76.672H41.4868ZM84.0951 56.728L75.1311 82H67.4271L58.4631 56.728H65.0151L71.2791 75.808L77.5791 56.728H84.0951ZM94.6239 56.728V82H88.4679V56.728H94.6239ZM115.537 82L107.041 70.84V82H100.885V56.728H107.041V67.816L115.465 56.728H122.701L112.909 69.112L123.061 82H115.537ZM133.943 77.248H142.007V82H127.787V56.728H133.943V77.248ZM152.899 56.728V82H146.743V56.728H152.899ZM181.768 82H175.612L165.316 66.412V82H159.16V56.728H165.316L175.612 72.388V56.728H181.768V82ZM204.806 64.72C204.35 63.88 203.69 63.244 202.826 62.812C201.986 62.356 200.99 62.128 199.838 62.128C197.846 62.128 196.25 62.788 195.05 64.108C193.85 65.404 193.25 67.144 193.25 69.328C193.25 71.656 193.874 73.48 195.122 74.8C196.394 76.096 198.134 76.744 200.342 76.744C201.854 76.744 203.126 76.36 204.158 75.592C205.214 74.824 205.982 73.72 206.462 72.28H198.65V67.744H212.042V73.468C211.586 75.004 210.806 76.432 209.702 77.752C208.622 79.072 207.242 80.14 205.562 80.956C203.882 81.772 201.986 82.18 199.874 82.18C197.378 82.18 195.146 81.64 193.178 80.56C191.234 79.456 189.71 77.932 188.606 75.988C187.526 74.044 186.986 71.824 186.986 69.328C186.986 66.832 187.526 64.612 188.606 62.668C189.71 60.7 191.234 59.176 193.178 58.096C195.122 56.992 197.342 56.44 199.838 56.44C202.862 56.44 205.406 57.172 207.47 58.636C209.558 60.1 210.938 62.128 211.61 64.72H204.806Z" fill="white" fill-opacity="0.5" style="mix-blend-mode:lighten"/>
<path d="M28.423 88.685L27.219 95.393H19.178L15.007 119H6.536L10.707 95.393H2.709L3.913 88.685H28.423ZM38.8082 95.35L37.9482 100.381H47.6232L46.4622 106.788H36.7872L35.7982 112.292H46.7632L45.6022 119H26.1662L31.5412 88.685H50.9342L49.7732 95.35H38.8082ZM69.8048 114.055H59.0548L56.5608 119H47.7028L64.0858 88.685H73.8038L79.4798 119H70.5788L69.8048 114.055ZM68.8158 107.648L67.3108 97.801L62.3228 107.648H68.8158ZM110.392 88.685L109.188 95.393H101.147L96.9758 119H88.5048L92.6758 95.393H84.6778L85.8818 88.685H110.392ZM120.777 95.35L119.917 100.381H129.592L128.431 106.788H118.756L117.767 112.292H128.732L127.571 119H108.135L113.51 88.685H132.903L131.742 95.35H120.777ZM150.355 88.685C153.537 88.685 155.959 89.4017 157.622 90.835C159.284 92.2397 160.116 94.1173 160.116 96.468C160.116 97.1847 160.058 97.8297 159.944 98.403C159.6 100.467 158.725 102.287 157.321 103.864C155.916 105.412 154.053 106.516 151.731 107.175L156.461 119H147.087L143.045 107.82H142.142L140.164 119H131.693L137.068 88.685H150.355ZM143.174 102.058H147.345C149.581 102.058 150.899 100.997 151.301 98.876C151.358 98.532 151.387 98.2883 151.387 98.145C151.387 97.371 151.129 96.769 150.613 96.339C150.125 95.909 149.394 95.694 148.42 95.694H144.249L143.174 102.058ZM186.05 88.685L184.889 95.393H172.763L171.817 100.725H180.718L179.6 107.132H170.699L168.592 119H160.121L165.496 88.685H186.05ZM196.867 95.35L196.007 100.381H205.682L204.521 106.788H194.846L193.857 112.292H204.822L203.661 119H184.225L189.6 88.685H208.993L207.832 95.35H196.867ZM220.338 119.301C216.841 119.301 214.017 118.584 211.867 117.151C209.746 115.689 208.685 113.568 208.685 110.787C208.685 110.558 208.714 110.156 208.771 109.583H217.672C217.586 110.558 217.787 111.317 218.274 111.862C218.762 112.407 219.507 112.679 220.51 112.679C221.342 112.679 222.001 112.493 222.488 112.12C223.004 111.747 223.262 111.217 223.262 110.529C223.262 109.726 222.89 109.067 222.144 108.551C221.428 108.035 220.252 107.433 218.618 106.745C216.984 106.057 215.637 105.412 214.576 104.81C213.516 104.179 212.598 103.334 211.824 102.273C211.05 101.184 210.663 99.8363 210.663 98.231C210.663 96.1383 211.179 94.3467 212.211 92.856C213.243 91.3367 214.677 90.19 216.511 89.416C218.375 88.6133 220.496 88.212 222.875 88.212C225.025 88.212 226.932 88.556 228.594 89.244C230.257 89.9033 231.547 90.8637 232.464 92.125C233.41 93.3863 233.883 94.877 233.883 96.597C233.883 97.0557 233.869 97.3997 233.84 97.629H224.767C224.796 97.4857 224.81 97.285 224.81 97.027C224.81 96.339 224.595 95.8087 224.165 95.436C223.735 95.0347 223.148 94.834 222.402 94.834C221.628 94.834 220.998 95.0347 220.51 95.436C220.052 95.8087 219.822 96.339 219.822 97.027C219.822 97.7723 220.181 98.4173 220.897 98.962C221.643 99.478 222.789 100.094 224.337 100.811C226 101.585 227.362 102.316 228.422 103.004C229.512 103.663 230.443 104.552 231.217 105.67C231.991 106.788 232.378 108.164 232.378 109.798C232.378 111.604 231.891 113.238 230.916 114.7C229.942 116.133 228.551 117.266 226.745 118.097C224.939 118.9 222.804 119.301 220.338 119.301ZM263.159 88.685L261.955 95.393H253.914L249.743 119H241.272L245.443 95.393H237.445L238.649 88.685H263.159ZM274.706 88.685L269.374 119H260.903L266.278 88.685H274.706ZM286.299 88.685L289.309 110.529L300.016 88.685H309.003L293.179 119H282.429L277.312 88.685H286.299ZM326.335 114.055H315.585L313.091 119H304.233L320.616 88.685H330.334L336.01 119H327.109L326.335 114.055ZM325.346 107.648L323.841 97.801L318.853 107.648H325.346ZM348.346 112.593H357.763L356.602 119H338.714L344.089 88.685H352.517L348.346 112.593Z" fill="#C8FFA3" style="mix-blend-mode:lighten"/>
<path d="M237.63 81H233.013L225.291 69.309V81H220.674V62.046H225.291L233.013 73.791V62.046H237.63V81ZM246.674 65.745V69.579H252.857V73.143H246.674V77.301H253.667V81H242.057V62.046H253.667V65.745H246.674ZM271.379 62.046V65.745H266.357V81H261.74V65.745H256.718V62.046H271.379ZM292.569 62.046L285.846 81H280.068L273.345 62.046H278.259L282.957 76.356L287.682 62.046H292.569ZM311.536 65.691V69.579H317.557V73.089H311.536V77.355H318.367V81H306.919V77.814H300.682L299.062 81H294.067L303.76 62.046H318.367V65.691H311.536ZM306.919 74.304V65.475L302.464 74.304H306.919ZM332.112 81L328.17 73.845H327.063V81H322.446V62.046H330.195C331.689 62.046 332.958 62.307 334.002 62.829C335.064 63.351 335.856 64.071 336.378 64.989C336.9 65.889 337.161 66.897 337.161 68.013C337.161 69.273 336.801 70.398 336.081 71.388C335.379 72.378 334.335 73.08 332.949 73.494L337.323 81H332.112ZM327.063 70.578H329.925C330.771 70.578 331.401 70.371 331.815 69.957C332.247 69.543 332.463 68.958 332.463 68.202C332.463 67.482 332.247 66.915 331.815 66.501C331.401 66.087 330.771 65.88 329.925 65.88H327.063V70.578ZM352.128 81L345.756 72.63V81H341.139V62.046H345.756V70.362L352.074 62.046H357.501L350.157 71.334L357.771 81H352.128Z" fill="white" fill-opacity="0.5" style="mix-blend-mode:lighten"/>
<path d="M131.089 162.238V166.485H122.223V171.073H128.857V175.196H122.223V184H116.922V162.238H131.089ZM144.167 184.217C142.121 184.217 140.24 183.742 138.525 182.791C136.83 181.84 135.477 180.518 134.464 178.823C133.472 177.108 132.976 175.186 132.976 173.057C132.976 170.928 133.472 169.017 134.464 167.322C135.477 165.627 136.83 164.305 138.525 163.354C140.24 162.403 142.121 161.928 144.167 161.928C146.213 161.928 148.083 162.403 149.778 163.354C151.493 164.305 152.837 165.627 153.808 167.322C154.8 169.017 155.296 170.928 155.296 173.057C155.296 175.186 154.8 177.108 153.808 178.823C152.816 180.518 151.473 181.84 149.778 182.791C148.083 183.742 146.213 184.217 144.167 184.217ZM144.167 179.381C145.903 179.381 147.288 178.802 148.321 177.645C149.375 176.488 149.902 174.958 149.902 173.057C149.902 171.135 149.375 169.606 148.321 168.469C147.288 167.312 145.903 166.733 144.167 166.733C142.41 166.733 141.005 167.301 139.951 168.438C138.918 169.575 138.401 171.114 138.401 173.057C138.401 174.979 138.918 176.519 139.951 177.676C141.005 178.813 142.41 179.381 144.167 179.381ZM169.343 184L164.817 175.785H163.546V184H158.245V162.238H167.142C168.858 162.238 170.315 162.538 171.513 163.137C172.733 163.736 173.642 164.563 174.241 165.617C174.841 166.65 175.14 167.808 175.14 169.089C175.14 170.536 174.727 171.827 173.9 172.964C173.094 174.101 171.896 174.907 170.304 175.382L175.326 184H169.343ZM163.546 172.034H166.832C167.804 172.034 168.527 171.796 169.002 171.321C169.498 170.846 169.746 170.174 169.746 169.306C169.746 168.479 169.498 167.828 169.002 167.353C168.527 166.878 167.804 166.64 166.832 166.64H163.546V172.034ZM183.769 166.485V170.887H190.868V174.979H183.769V179.753H191.798V184H178.468V162.238H191.798V166.485H183.769ZM203.113 184.217C201.522 184.217 200.096 183.959 198.835 183.442C197.575 182.925 196.562 182.161 195.797 181.148C195.053 180.135 194.661 178.916 194.619 177.49H200.261C200.344 178.296 200.623 178.916 201.098 179.35C201.574 179.763 202.194 179.97 202.958 179.97C203.744 179.97 204.364 179.794 204.818 179.443C205.273 179.071 205.5 178.565 205.5 177.924C205.5 177.387 205.314 176.942 204.942 176.591C204.591 176.24 204.147 175.95 203.609 175.723C203.093 175.496 202.349 175.237 201.377 174.948C199.972 174.514 198.825 174.08 197.936 173.646C197.048 173.212 196.283 172.571 195.642 171.724C195.002 170.877 194.681 169.771 194.681 168.407C194.681 166.382 195.415 164.801 196.882 163.664C198.35 162.507 200.261 161.928 202.617 161.928C205.015 161.928 206.947 162.507 208.414 163.664C209.882 164.801 210.667 166.392 210.77 168.438H205.035C204.994 167.735 204.736 167.188 204.26 166.795C203.785 166.382 203.175 166.175 202.431 166.175C201.791 166.175 201.274 166.351 200.881 166.702C200.489 167.033 200.292 167.518 200.292 168.159C200.292 168.862 200.623 169.409 201.284 169.802C201.946 170.195 202.979 170.618 204.384 171.073C205.79 171.548 206.926 172.003 207.794 172.437C208.683 172.871 209.448 173.501 210.088 174.328C210.729 175.155 211.049 176.219 211.049 177.521C211.049 178.761 210.729 179.887 210.088 180.9C209.468 181.913 208.559 182.719 207.36 183.318C206.162 183.917 204.746 184.217 203.113 184.217ZM229.967 162.238V166.485H224.201V184H218.9V166.485H213.134V162.238H229.967ZM237.928 162.238V184H232.627V162.238H237.928ZM247.071 179.908H254.015V184H241.77V162.238H247.071V179.908ZM261.844 179.908H268.788V184H256.543V162.238H261.844V179.908ZM276.618 162.238V184H271.317V162.238H276.618ZM299.927 184H294.626L285.76 170.577V184H280.459V162.238H285.76L294.626 175.723V162.238H299.927V184ZM318.216 169.12C317.823 168.397 317.255 167.849 316.511 167.477C315.787 167.084 314.93 166.888 313.938 166.888C312.222 166.888 310.848 167.456 309.815 168.593C308.781 169.709 308.265 171.207 308.265 173.088C308.265 175.093 308.802 176.663 309.877 177.8C310.972 178.916 312.47 179.474 314.372 179.474C315.674 179.474 316.769 179.143 317.658 178.482C318.567 177.821 319.228 176.87 319.642 175.63H312.915V171.724H324.447V176.653C324.054 177.976 323.382 179.205 322.432 180.342C321.502 181.479 320.313 182.398 318.867 183.101C317.42 183.804 315.787 184.155 313.969 184.155C311.819 184.155 309.897 183.69 308.203 182.76C306.529 181.809 305.216 180.497 304.266 178.823C303.336 177.149 302.871 175.237 302.871 173.088C302.871 170.939 303.336 169.027 304.266 167.353C305.216 165.658 306.529 164.346 308.203 163.416C309.877 162.465 311.788 161.99 313.938 161.99C316.542 161.99 318.732 162.62 320.51 163.881C322.308 165.142 323.496 166.888 324.075 169.12H318.216ZM332.684 166.485V170.887H339.783V174.979H332.684V179.753H340.713V184H327.383V162.238H340.713V166.485H332.684ZM355.252 184L350.726 175.785H349.455V184H344.154V162.238H353.051C354.767 162.238 356.224 162.538 357.422 163.137C358.642 163.736 359.551 164.563 360.15 165.617C360.75 166.65 361.049 167.808 361.049 169.089C361.049 170.536 360.636 171.827 359.809 172.964C359.003 174.101 357.805 174.907 356.213 175.382L361.235 184H355.252ZM349.455 172.034H352.741C353.713 172.034 354.436 171.796 354.911 171.321C355.407 170.846 355.655 170.174 355.655 169.306C355.655 168.479 355.407 167.828 354.911 167.353C354.436 166.878 353.713 166.64 352.741 166.64H349.455V172.034Z" fill="white" fill-opacity="0.5" style="mix-blend-mode:lighten"/>
<path d="M25.7 51H20.57L11.99 38.01V51H6.86V29.94H11.99L20.57 42.99V29.94H25.7V51ZM47.4786 29.94L40.1886 44.04V51H35.0586V44.04L27.7686 29.94H33.5886L37.6686 38.76L41.7186 29.94H47.4786ZM64.6955 29.94V34.05H59.1155V51H53.9855V34.05H48.4055V29.94H64.6955ZM85.0002 33.99V38.31H91.6902V42.21H85.0002V46.95H92.5902V51H79.8702V47.46H72.9402L71.1402 51H65.5902L76.3602 29.94H92.5902V33.99H85.0002ZM79.8702 43.56V33.75L74.9202 43.56H79.8702ZM114.763 51H109.633L101.053 38.01V51H95.9225V29.94H101.053L109.633 42.99V29.94H114.763V51ZM130.691 51L123.611 41.7V51H118.481V29.94H123.611V39.18L130.631 29.94H136.661L128.501 40.26L136.961 51H130.691ZM144.529 34.05V38.31H151.399V42.27H144.529V46.89H152.299V51H139.399V29.94H152.299V34.05H144.529ZM174.47 51H169.34L160.76 38.01V51H155.63V29.94H160.76L169.34 42.99V29.94H174.47V51ZM186.078 29.94C188.298 29.94 190.238 30.38 191.898 31.26C193.558 32.14 194.838 33.38 195.738 34.98C196.658 36.56 197.118 38.39 197.118 40.47C197.118 42.53 196.658 44.36 195.738 45.96C194.838 47.56 193.548 48.8 191.868 49.68C190.208 50.56 188.278 51 186.078 51H178.188V29.94H186.078ZM185.748 46.56C187.688 46.56 189.198 46.03 190.278 44.97C191.358 43.91 191.898 42.41 191.898 40.47C191.898 38.53 191.358 37.02 190.278 35.94C189.198 34.86 187.688 34.32 185.748 34.32H183.318V46.56H185.748ZM205.115 34.05V38.31H211.985V42.27H205.115V46.89H212.885V51H199.985V29.94H212.885V34.05H205.115Z" fill="white" fill-opacity="0.5" style="mix-blend-mode:lighten"/>
<path d="M15.64 153.28C13.5867 153.28 11.7467 152.947 10.12 152.28C8.49333 151.613 7.18667 150.627 6.2 149.32C5.24 148.013 4.73333 146.44 4.68 144.6H11.96C12.0667 145.64 12.4267 146.44 13.04 147C13.6533 147.533 14.4533 147.8 15.44 147.8C16.4533 147.8 17.2533 147.573 17.84 147.12C18.4267 146.64 18.72 145.987 18.72 145.16C18.72 144.467 18.48 143.893 18 143.44C17.5467 142.987 16.9733 142.613 16.28 142.32C15.6133 142.027 14.6533 141.693 13.4 141.32C11.5867 140.76 10.1067 140.2 8.96 139.64C7.81333 139.08 6.82667 138.253 6 137.16C5.17333 136.067 4.76 134.64 4.76 132.88C4.76 130.267 5.70667 128.227 7.6 126.76C9.49333 125.267 11.96 124.52 15 124.52C18.0933 124.52 20.5867 125.267 22.48 126.76C24.3733 128.227 25.3867 130.28 25.52 132.92H18.12C18.0667 132.013 17.7333 131.307 17.12 130.8C16.5067 130.267 15.72 130 14.76 130C13.9333 130 13.2667 130.227 12.76 130.68C12.2533 131.107 12 131.733 12 132.56C12 133.467 12.4267 134.173 13.28 134.68C14.1333 135.187 15.4667 135.733 17.28 136.32C19.0933 136.933 20.56 137.52 21.68 138.08C22.8267 138.64 23.8133 139.453 24.64 140.52C25.4667 141.587 25.88 142.96 25.88 144.64C25.88 146.24 25.4667 147.693 24.64 149C23.84 150.307 22.6667 151.347 21.12 152.12C19.5733 152.893 17.7467 153.28 15.64 153.28ZM51.4894 133.96C51.4894 135.587 51.116 137.08 50.3694 138.44C49.6227 139.773 48.476 140.853 46.9294 141.68C45.3827 142.507 43.4627 142.92 41.1694 142.92H36.9294V153H30.0894V124.92H41.1694C43.4094 124.92 45.3027 125.307 46.8494 126.08C48.396 126.853 49.556 127.92 50.3294 129.28C51.1027 130.64 51.4894 132.2 51.4894 133.96ZM40.6494 137.48C41.956 137.48 42.9294 137.173 43.5694 136.56C44.2094 135.947 44.5294 135.08 44.5294 133.96C44.5294 132.84 44.2094 131.973 43.5694 131.36C42.9294 130.747 41.956 130.44 40.6494 130.44H36.9294V137.48H40.6494ZM61.8903 124.92V153H55.0503V124.92H61.8903ZM81.1672 153L75.3272 142.4H73.6872V153H66.8472V124.92H78.3272C80.5405 124.92 82.4205 125.307 83.9672 126.08C85.5405 126.853 86.7139 127.92 87.4872 129.28C88.2605 130.613 88.6472 132.107 88.6472 133.76C88.6472 135.627 88.1139 137.293 87.0472 138.76C86.0072 140.227 84.4605 141.267 82.4072 141.88L88.8872 153H81.1672ZM73.6872 137.56H77.9272C79.1805 137.56 80.1139 137.253 80.7272 136.64C81.3672 136.027 81.6872 135.16 81.6872 134.04C81.6872 132.973 81.3672 132.133 80.7272 131.52C80.1139 130.907 79.1805 130.6 77.9272 130.6H73.6872V137.56ZM99.7809 130.4V136.08H108.941V141.36H99.7809V147.52H110.141V153H92.9409V124.92H110.141V130.4H99.7809ZM139.702 153H132.862L121.422 135.68V153H114.582V124.92H121.422L132.862 142.32V124.92H139.702V153ZM155.18 124.92C158.14 124.92 160.726 125.507 162.94 126.68C165.153 127.853 166.86 129.507 168.06 131.64C169.286 133.747 169.9 136.187 169.9 138.96C169.9 141.707 169.286 144.147 168.06 146.28C166.86 148.413 165.14 150.067 162.9 151.24C160.686 152.413 158.113 153 155.18 153H144.66V124.92H155.18ZM154.74 147.08C157.326 147.08 159.34 146.373 160.78 144.96C162.22 143.547 162.94 141.547 162.94 138.96C162.94 136.373 162.22 134.36 160.78 132.92C159.34 131.48 157.326 130.76 154.74 130.76H151.5V147.08H154.74ZM180.562 130.4V136.08H189.722V141.36H180.562V147.52H190.922V153H173.722V124.92H190.922V130.4H180.562Z" fill="white" fill-opacity="0.4" style="mix-blend-mode:lighten"/>
<path d="M246.914 49.72H255.874V55H240.074V26.92H246.914V49.72ZM265.976 26.92V55H259.136V26.92H265.976ZM297.293 26.92L287.333 55H278.773L268.813 26.92H276.093L283.053 48.12L290.053 26.92H297.293ZM306.992 49.72H315.952V55H300.152V26.92H306.992V49.72ZM326.054 26.92V55H319.214V26.92H326.054ZM349.651 35.8C349.145 34.8667 348.411 34.16 347.451 33.68C346.518 33.1733 345.411 32.92 344.131 32.92C341.918 32.92 340.145 33.6533 338.811 35.12C337.478 36.56 336.811 38.4933 336.811 40.92C336.811 43.5067 337.505 45.5333 338.891 47C340.305 48.44 342.238 49.16 344.691 49.16C346.371 49.16 347.785 48.7333 348.931 47.88C350.105 47.0267 350.958 45.8 351.491 44.2H342.811V39.16H357.691V45.52C357.185 47.2267 356.318 48.8133 355.091 50.28C353.891 51.7467 352.358 52.9333 350.491 53.84C348.625 54.7467 346.518 55.2 344.171 55.2C341.398 55.2 338.918 54.6 336.731 53.4C334.571 52.1733 332.878 50.48 331.651 48.32C330.451 46.16 329.851 43.6933 329.851 40.92C329.851 38.1467 330.451 35.68 331.651 33.52C332.878 31.3333 334.571 29.64 336.731 28.44C338.891 27.2133 341.358 26.6 344.131 26.6C347.491 26.6 350.318 27.4133 352.611 29.04C354.931 30.6667 356.465 32.92 357.211 35.8H349.651Z" fill="white" fill-opacity="0.5" style="mix-blend-mode:lighten"/>
</svg>
