<svg width="36" height="36" viewBox="0 0 36 36" fill="none" xmlns="http://www.w3.org/2000/svg">
<path d="M35.4476 25.6141C35.4476 31.9841 31.6501 35.7816 25.2801 35.7816H23.1976C22.2351 35.7816 21.4476 34.9941 21.4476 34.0316V23.9341C21.4476 23.4616 21.8326 23.0591 22.3051 23.0591L25.3851 23.0066C25.6301 22.9891 25.8401 22.8141 25.8926 22.5691L26.5051 19.2266C26.5576 18.9116 26.3126 18.6141 25.9801 18.6141L22.2526 18.6666C21.7626 18.6666 21.3776 18.2816 21.3601 17.8091L21.2901 13.5216C21.2901 13.2416 21.5176 12.9966 21.8151 12.9966L26.0151 12.9266C26.3126 12.9266 26.5401 12.6991 26.5401 12.4016L26.4701 8.20157C26.4701 7.90407 26.2426 7.67659 25.9451 7.67659L21.2201 7.7466C18.3151 7.7991 16.0051 10.1791 16.0576 13.0841L16.1451 17.8966C16.1626 18.3866 15.7776 18.7716 15.2876 18.7891L13.1876 18.8241C12.8901 18.8241 12.6626 19.0516 12.6626 19.3491L12.7151 22.6741C12.7151 22.9716 12.9426 23.1991 13.2401 23.1991L15.3401 23.1641C15.8301 23.1641 16.2151 23.5491 16.2326 24.0216L16.3901 33.9966C16.4076 34.9766 15.6201 35.7816 14.6401 35.7816H10.6151C4.24513 35.7816 0.447632 31.9841 0.447632 25.5966V10.9491C0.447632 4.57909 4.24513 0.781586 10.6151 0.781586H25.2801C31.6501 0.781586 35.4476 4.57909 35.4476 10.9491V25.6141Z" fill="#702065"/>
</svg>
