<svg xmlns="http://www.w3.org/2000/svg" width="440.447" height="1059.135" viewBox="0 0 440.447 1059.135">
  <path id="Path_1" data-name="Path 1" d="M151.882-125.524C110.63-98.157,96.865-62.368,98.527-22.414c1.157,27.8,4.614,61.389,21.2,86.567,28.739,43.637,82.479,55.675,142.159,52.339,36.1-2.018,113.648-13.317,128.271-48.061,4.595-10.918-13.9-15.483-22.292-13.976-20.033,3.6-41.543,21.028-50.8,33.372-88.544,118.1,8.484,266.505-89.169,384.2-19.263,23.218-44.007,43.992-71.627,61.324A381.058,381.058,0,0,1,63.81,575c-18.484,5.545-45.679,15.141-59.2,3.85-10.816-9.03,14.682-23.133,27.774-30.091,40.265-21.4,85.229-36.947,129.186-53.338,38.2-14.246,214.677-67.15,260.928-99.117,70.848-48.967-101.339-66.276-140.1-68.963C180.471,320.271,137.838,389.455,130,456.974c-11.653,100.38,75.843,176.165,122.015,267.483,23.985,47.437,52.246,93.51,76.378,140.9,82.348,161.721-25.937-49.375,27.408,64.177" transform="translate(-0.475 127.603)" fill="rgba(0,0,0,0)" stroke="rgba(112,112,112,0.11)" stroke-linecap="round" stroke-width="3"/>
</svg>
