<svg xmlns="http://www.w3.org/2000/svg" width="358.526" height="202.615" viewBox="0 0 358.526 202.615">
  <g id="Group_1" data-name="Group 1" transform="translate(-2.709 -6.32)">
    <path id="Path_1" data-name="Path 1" d="M238.815,196.47,235.08,207h-3.21l-3.735-10.53h2.73l2.61,7.95,2.625-7.95Zm9.937,2.025v2.16H252.1v1.95h-3.345v2.37h3.795V207h-6.36v-1.77h-3.465l-.9,1.77h-2.775l5.385-10.53h8.115v2.025Zm-2.565,4.785v-4.9l-2.475,4.9Zm13.4,3.72-2.19-3.975h-.615V207h-2.565V196.47h4.305a4.691,4.691,0,0,1,2.115.435,2.975,2.975,0,0,1,1.32,1.2,3.287,3.287,0,0,1,.435,1.68,3.108,3.108,0,0,1-.6,1.875,3.151,3.151,0,0,1-1.74,1.17l2.43,4.17Zm-2.8-5.79h1.59a1.428,1.428,0,0,0,1.05-.345,1.287,1.287,0,0,0,.36-.975,1.247,1.247,0,0,0-.36-.945,1.428,1.428,0,0,0-1.05-.345h-1.59Zm22.324-4.74V207h-2.565v-6.315L274.182,207h-2.07l-2.37-6.33V207h-2.565V196.47h3.03l2.955,7.29,2.925-7.29Zm4.41,2.055v2.13h3.435v1.98h-3.435v2.31H287.4V207h-6.45V196.47h6.45v2.055Zm9.495-2.055a6.125,6.125,0,0,1,2.91.66,4.653,4.653,0,0,1,1.92,1.86,5.805,5.805,0,0,1,0,5.49,4.631,4.631,0,0,1-1.935,1.86,6.091,6.091,0,0,1-2.9.66h-3.945V196.47Zm-.165,8.31a3.1,3.1,0,0,0,2.265-.795,3.01,3.01,0,0,0,.81-2.25,2.812,2.812,0,0,0-3.075-3.075h-1.215v6.12Zm9.878-.15-1.665,4.3H299.42l.87-4.3Zm8.536,2.475a5.417,5.417,0,0,1-2.07-.375,3.426,3.426,0,0,1-1.47-1.11,3.063,3.063,0,0,1-.57-1.77h2.73a1.355,1.355,0,0,0,.4.9,1.322,1.322,0,0,0,.9.3,1.437,1.437,0,0,0,.9-.255.9.9,0,0,0,.33-.735.849.849,0,0,0-.27-.645,2,2,0,0,0-.645-.42,9.748,9.748,0,0,0-1.08-.375,11.841,11.841,0,0,1-1.665-.63,3.077,3.077,0,0,1-1.11-.93,2.591,2.591,0,0,1-.465-1.6,2.739,2.739,0,0,1,1.065-2.295,4.349,4.349,0,0,1,2.775-.84,4.4,4.4,0,0,1,2.805.84,2.957,2.957,0,0,1,1.14,2.31h-2.775a1.061,1.061,0,0,0-.375-.795,1.3,1.3,0,0,0-.885-.3,1.082,1.082,0,0,0-.75.255.87.87,0,0,0-.285.705.883.883,0,0,0,.48.795,7.869,7.869,0,0,0,1.5.615,13.366,13.366,0,0,1,1.65.66,3.135,3.135,0,0,1,1.11.915,2.449,2.449,0,0,1,.465,1.545,3,3,0,0,1-.465,1.635,3.152,3.152,0,0,1-1.32,1.17A4.544,4.544,0,0,1,311.256,207.1Zm7.983-8.58v2.13h3.435v1.98h-3.435v2.31h3.885V207h-6.45V196.47h6.45v2.055Zm20.654-2.055V207h-2.565v-6.315L334.973,207H332.9l-2.37-6.33V207h-2.565V196.47H331l2.955,7.29,2.925-7.29Zm4.41,2.055v2.13h3.435v1.98H344.3v2.31h3.885V207h-6.45V196.47h6.45v2.055Zm9.495-2.055a6.125,6.125,0,0,1,2.91.66,4.653,4.653,0,0,1,1.92,1.86,5.805,5.805,0,0,1,0,5.49,4.631,4.631,0,0,1-1.935,1.86,6.091,6.091,0,0,1-2.895.66h-3.945V196.47Zm-.165,8.31a3.1,3.1,0,0,0,2.265-.795,3.01,3.01,0,0,0,.81-2.25,2.812,2.812,0,0,0-3.075-3.075h-1.215v6.12Z" fill="rgba(255,255,255,0.81)"/>
    <path id="Path_2" data-name="Path 2" d="M13.815,6.47,10.08,17H6.87L3.135,6.47h2.73l2.61,7.95L11.1,6.47Zm3.637,0V17H14.887V6.47Zm4.424,8.55h3.36V17H19.311V6.47h2.565ZM30.4,6.47a6.125,6.125,0,0,1,2.91.66,4.653,4.653,0,0,1,1.92,1.86,5.355,5.355,0,0,1,.69,2.745,5.407,5.407,0,0,1-.69,2.745A4.631,4.631,0,0,1,33.3,16.34a6.091,6.091,0,0,1-2.9.66H26.459V6.47Zm-.165,8.31a3.1,3.1,0,0,0,2.265-.8,3.01,3.01,0,0,0,.81-2.25A3.062,3.062,0,0,0,32.5,9.47a3.062,3.062,0,0,0-2.265-.81H29.024v6.12ZM41.168,17.1a5.417,5.417,0,0,1-2.07-.375,3.426,3.426,0,0,1-1.47-1.11,3.063,3.063,0,0,1-.57-1.77h2.73a1.355,1.355,0,0,0,.4.9,1.322,1.322,0,0,0,.9.3,1.437,1.437,0,0,0,.9-.255.9.9,0,0,0,.33-.735.849.849,0,0,0-.27-.645,2,2,0,0,0-.645-.42,9.748,9.748,0,0,0-1.08-.375,11.841,11.841,0,0,1-1.665-.63,3.076,3.076,0,0,1-1.11-.93,2.591,2.591,0,0,1-.465-1.605,2.739,2.739,0,0,1,1.065-2.3,4.349,4.349,0,0,1,2.775-.84,4.4,4.4,0,0,1,2.805.84,2.957,2.957,0,0,1,1.14,2.31H42.1a1.06,1.06,0,0,0-.375-.8,1.3,1.3,0,0,0-.885-.3,1.082,1.082,0,0,0-.75.255.87.87,0,0,0-.285.7.883.883,0,0,0,.48.8,7.868,7.868,0,0,0,1.5.615,13.364,13.364,0,0,1,1.65.66,3.135,3.135,0,0,1,1.11.915,2.449,2.449,0,0,1,.465,1.545,3,3,0,0,1-.465,1.635,3.152,3.152,0,0,1-1.32,1.17A4.544,4.544,0,0,1,41.168,17.1ZM52.691,17l-3.54-4.65V17H46.586V6.47h2.565v4.62l3.51-4.62h3.015L51.6,11.63,55.826,17ZM59.565,6.47v6.3a2.085,2.085,0,0,0,.465,1.455,1.754,1.754,0,0,0,1.365.51,1.8,1.8,0,0,0,1.38-.51,2.043,2.043,0,0,0,.48-1.455V6.47H65.82v6.285a4.468,4.468,0,0,1-.6,2.385,3.832,3.832,0,0,1-1.62,1.47,5.4,5.4,0,0,1-4.485.015,3.705,3.705,0,0,1-1.545-1.47,4.736,4.736,0,0,1-.57-2.4V6.47Zm12,0a6.125,6.125,0,0,1,2.91.66A4.653,4.653,0,0,1,76.4,8.99a5.355,5.355,0,0,1,.69,2.745,5.407,5.407,0,0,1-.69,2.745,4.631,4.631,0,0,1-1.935,1.86,6.091,6.091,0,0,1-2.9.66H67.621V6.47ZM71.4,14.78a3.1,3.1,0,0,0,2.265-.8,3.01,3.01,0,0,0,.81-2.25,3.062,3.062,0,0,0-.81-2.265A3.062,3.062,0,0,0,71.4,8.66H70.186v6.12ZM84.264,8.525v2.13H87.7v1.98H84.264v2.31h3.885V17H81.7V6.47h6.45V8.525ZM95.184,17l-2.19-3.975h-.615V17H89.814V6.47h4.305a4.691,4.691,0,0,1,2.115.435,2.975,2.975,0,0,1,1.32,1.2,3.287,3.287,0,0,1,.435,1.68,3.108,3.108,0,0,1-.6,1.875,3.151,3.151,0,0,1-1.74,1.17L98.079,17Zm-2.805-5.79h1.59a1.428,1.428,0,0,0,1.05-.345,1.287,1.287,0,0,0,.36-.975,1.247,1.247,0,0,0-.36-.945,1.428,1.428,0,0,0-1.05-.345h-1.59Z" fill="rgba(255,255,255,0.81)"/>
    <path id="Path_3" data-name="Path 3" d="M214.45,132.748a10.613,10.613,0,0,1,5.044,1.144,8.063,8.063,0,0,1,3.328,3.224,9.284,9.284,0,0,1,1.2,4.758,9.378,9.378,0,0,1-1.2,4.758,8.028,8.028,0,0,1-3.354,3.224A10.554,10.554,0,0,1,214.45,151h-6.838V132.748Zm-.286,14.4a5.365,5.365,0,0,0,3.926-1.378,5.219,5.219,0,0,0,1.4-3.9,4.874,4.874,0,0,0-5.33-5.33h-2.106v10.608ZM235.811,151l-3.8-6.89h-1.066V151H226.5V132.748h7.462a8.131,8.131,0,0,1,3.666.754,5.164,5.164,0,0,1,2.288,2.08,5.7,5.7,0,0,1,.754,2.912,5.389,5.389,0,0,1-1.04,3.25,5.468,5.468,0,0,1-3.016,2.028L240.829,151Zm-4.862-10.036h2.756a2.476,2.476,0,0,0,1.82-.6,2.231,2.231,0,0,0,.624-1.69,2.163,2.163,0,0,0-.624-1.638,2.476,2.476,0,0,0-1.82-.6h-2.756Zm23.877,6.812h-6.812L246.922,151h-4.654l6.6-18.252h5.148l6.6,18.252h-4.706Zm-1.144-3.432-2.262-6.682-2.236,6.682Zm29.621-11.6V151h-4.446V140.054L274.775,151h-3.588l-4.108-10.972V151h-4.446V132.748h5.252l5.122,12.636,5.07-12.636Zm14.56,15.028h-6.812L289.959,151H285.3l6.6-18.252h5.148l6.6,18.252h-4.706Zm-1.144-3.432-2.262-6.682-2.236,6.682Zm22.082-11.6v3.562h-4.836V151h-4.446V136.31h-4.836v-3.562Zm6.677,0V151h-4.446V132.748Zm9.826,18.434a9.393,9.393,0,0,1-3.588-.65,5.939,5.939,0,0,1-2.548-1.924,5.311,5.311,0,0,1-.988-3.068h4.732a2.345,2.345,0,0,0,.7,1.56,2.291,2.291,0,0,0,1.56.52,2.487,2.487,0,0,0,1.56-.442,1.56,1.56,0,0,0,.572-1.274,1.472,1.472,0,0,0-.468-1.118,3.471,3.471,0,0,0-1.118-.728,16.848,16.848,0,0,0-1.872-.65,20.493,20.493,0,0,1-2.886-1.092,5.329,5.329,0,0,1-1.924-1.612,4.494,4.494,0,0,1-.806-2.782,4.746,4.746,0,0,1,1.846-3.978,7.537,7.537,0,0,1,4.81-1.456,7.624,7.624,0,0,1,4.862,1.456,5.126,5.126,0,0,1,1.976,4h-4.81a1.838,1.838,0,0,0-.65-1.378,2.252,2.252,0,0,0-1.534-.52,1.875,1.875,0,0,0-1.3.442,1.509,1.509,0,0,0-.494,1.222,1.53,1.53,0,0,0,.832,1.378,13.64,13.64,0,0,0,2.6,1.066,23.2,23.2,0,0,1,2.86,1.144,5.438,5.438,0,0,1,1.924,1.586,4.247,4.247,0,0,1,.806,2.678,5.194,5.194,0,0,1-.806,2.834,5.47,5.47,0,0,1-2.288,2.028A7.873,7.873,0,0,1,335.3,151.182ZM355.278,151l-6.136-8.06V151H344.7V132.748h4.446v8.008l6.084-8.008h5.226l-7.072,8.944L360.712,151Z" fill="rgba(255,255,255,0.5)"/>
    <path id="Path_4" data-name="Path 4" d="M12.014,181.69l-4.716.041-.737,2.238L3.34,184,7.8,171.322l3.564-.031,4.682,12.6-3.258.028Zm-.813-2.369L9.6,174.709l-1.508,4.639Zm10.051-8.116.066,7.56a2.5,2.5,0,0,0,.573,1.741,2.105,2.105,0,0,0,1.643.6,2.165,2.165,0,0,0,1.651-.627,2.451,2.451,0,0,0,.561-1.751l-.066-7.559,3.078-.027.066,7.541a5.367,5.367,0,0,1-.7,2.869,4.6,4.6,0,0,1-1.929,1.78,6.478,6.478,0,0,1-5.382.065,4.446,4.446,0,0,1-1.869-1.748,5.682,5.682,0,0,1-.709-2.873l-.066-7.542Zm19.657-.171.021,2.466-3.348.029.088,10.17-3.078.026-.088-10.169-3.348.029-.021-2.466Zm5.544,2.418.022,2.556,4.122-.036.021,2.376-4.122.036.024,2.772,4.662-.041.021,2.466-7.74.067-.11-12.635,7.74-.067.021,2.465Zm18.952,10.006-3.078.026-5.216-7.749.068,7.794-3.078.027-.11-12.636,3.078-.026,5.216,7.785-.068-7.83,3.078-.027Zm12.111-12.742.021,2.466-3.348.029.089,10.169-3.078.027-.088-10.169-3.348.029-.021-2.466Zm5.522-.048.11,12.635-3.078.027-.11-12.635Zm7.813,12.694a6.494,6.494,0,0,1-2.488-.428,4.116,4.116,0,0,1-1.775-1.317,3.675,3.675,0,0,1-.7-2.118l3.276-.028a1.629,1.629,0,0,0,.5,1.076,1.589,1.589,0,0,0,1.083.35,1.726,1.726,0,0,0,1.077-.315,1.08,1.08,0,0,0,.388-.886,1.019,1.019,0,0,0-.331-.771,2.4,2.4,0,0,0-.778-.5,11.744,11.744,0,0,0-1.3-.439,14.3,14.3,0,0,1-2-.738,3.7,3.7,0,0,1-1.342-1.105,3.108,3.108,0,0,1-.575-1.921,3.287,3.287,0,0,1,1.254-2.765,5.222,5.222,0,0,1,3.321-1.037,5.277,5.277,0,0,1,3.375.979,3.55,3.55,0,0,1,1.392,2.76l-3.33.029a1.271,1.271,0,0,0-.458-.95,1.557,1.557,0,0,0-1.065-.351,1.3,1.3,0,0,0-.9.314,1.044,1.044,0,0,0-.335.849,1.06,1.06,0,0,0,.584.949,9.429,9.429,0,0,0,1.806.722,15.982,15.982,0,0,1,1.987.775,3.763,3.763,0,0,1,1.341,1.086,2.939,2.939,0,0,1,.574,1.849,3.594,3.594,0,0,1-.541,1.967,3.784,3.784,0,0,1-1.572,1.418A5.451,5.451,0,0,1,90.852,183.362Zm14.727-.254-4.3-5.543.048,5.58-3.078.027-.11-12.636,3.078-.026.048,5.543,4.164-5.58,3.618-.031-4.842,6.234,5.132,6.4Z" fill="rgba(255,255,255,0.5)" style="mix-blend-mode: lighten;isolation: isolate"/>
    <path id="Path_5" data-name="Path 5" d="M11.28,56.728v15.12A5,5,0,0,0,12.4,75.34a4.211,4.211,0,0,0,3.276,1.224,4.329,4.329,0,0,0,3.312-1.224,4.9,4.9,0,0,0,1.152-3.492V56.728h6.156V71.812a10.724,10.724,0,0,1-1.44,5.724,9.2,9.2,0,0,1-3.888,3.528,12.056,12.056,0,0,1-5.4,1.188A12.138,12.138,0,0,1,10.2,81.1a8.893,8.893,0,0,1-3.708-3.528,11.367,11.367,0,0,1-1.368-5.76V56.728Zm30.6,0a14.7,14.7,0,0,1,6.984,1.584,11.166,11.166,0,0,1,4.608,4.464,13.932,13.932,0,0,1,0,13.176,11.115,11.115,0,0,1-4.644,4.464A14.619,14.619,0,0,1,41.883,82H32.415V56.728Zm-.4,19.944a7.43,7.43,0,0,0,5.436-1.908,7.224,7.224,0,0,0,1.944-5.4,6.749,6.749,0,0,0-7.38-7.38H38.571V76.672ZM84.1,56.728,75.131,82h-7.7L58.463,56.728h6.552l6.264,19.08,6.3-19.08Zm10.529,0V82H88.468V56.728ZM115.537,82l-8.5-11.16V82h-6.156V56.728h6.156V67.816l8.424-11.088H122.7l-9.792,12.384L123.061,82Zm18.406-4.752h8.064V82h-14.22V56.728h6.156ZM152.9,56.728V82h-6.156V56.728ZM181.768,82h-6.156l-10.3-15.588V82H159.16V56.728h6.156l10.3,15.66V56.728h6.156Zm23.038-17.28a4.477,4.477,0,0,0-1.98-1.908,6.811,6.811,0,0,0-7.776,1.3,7.38,7.38,0,0,0-1.8,5.22,7.645,7.645,0,0,0,1.872,5.472,6.98,6.98,0,0,0,5.22,1.944,6.213,6.213,0,0,0,3.816-1.152,6.485,6.485,0,0,0,2.3-3.312H198.65V67.744h13.392v5.724a11.938,11.938,0,0,1-2.34,4.284,12.066,12.066,0,0,1-4.14,3.2,12.852,12.852,0,0,1-5.688,1.224,13.687,13.687,0,0,1-6.7-1.62,11.953,11.953,0,0,1-4.572-4.572,14.5,14.5,0,0,1,0-13.32,11.634,11.634,0,0,1,4.572-4.572,13.248,13.248,0,0,1,6.66-1.656,12.856,12.856,0,0,1,7.632,2.2,10.336,10.336,0,0,1,4.14,6.084Z" fill="rgba(255,255,255,0.5)" style="mix-blend-mode: lighten;isolation: isolate"/>
    <path id="Path_6" data-name="Path 6" d="M28.423,88.685l-1.2,6.708H19.178L15.007,119H6.536l4.171-23.607h-8l1.2-6.708ZM38.808,95.35l-.86,5.031h9.675l-1.161,6.407H36.787l-.989,5.5H46.763L45.6,119H26.166l5.375-30.315H50.934L49.773,95.35Zm31,18.705H59.055L56.561,119H47.7L64.086,88.685H73.8L79.48,119h-8.9Zm-.989-6.407L67.311,97.8l-4.988,9.847Zm41.576-18.963-1.2,6.708h-8.041L96.976,119H88.5l4.171-23.607h-8l1.2-6.708Zm10.385,6.665-.86,5.031h9.675l-1.161,6.407h-9.675l-.989,5.5h10.965L127.571,119H108.135l5.375-30.315H132.9l-1.161,6.665Zm29.578-6.665q4.773,0,7.267,2.15a7,7,0,0,1,2.494,5.633,9.962,9.962,0,0,1-.172,1.935,10.708,10.708,0,0,1-2.623,5.461,11.633,11.633,0,0,1-5.59,3.311L156.461,119h-9.374l-4.042-11.18h-.9L140.164,119h-8.471l5.375-30.315Zm-7.181,13.373h4.171a3.591,3.591,0,0,0,3.956-3.182,5.212,5.212,0,0,0,.086-.731,2.221,2.221,0,0,0-.774-1.806,3.234,3.234,0,0,0-2.193-.645h-4.171ZM186.05,88.685l-1.161,6.708H172.763l-.946,5.332h8.9l-1.118,6.407h-8.9L168.592,119h-8.471L165.5,88.685Zm10.817,6.665-.86,5.031h9.675l-1.161,6.407h-9.675l-.989,5.5h10.965L203.661,119H184.225L189.6,88.685h19.393l-1.161,6.665ZM220.338,119.3a15.027,15.027,0,0,1-8.471-2.15,7.248,7.248,0,0,1-3.182-6.364q0-.344.086-1.2h8.9a2.9,2.9,0,0,0,.6,2.279,2.85,2.85,0,0,0,2.236.817,3.175,3.175,0,0,0,1.978-.559,1.846,1.846,0,0,0,.774-1.591,2.322,2.322,0,0,0-1.118-1.978,19.2,19.2,0,0,0-3.526-1.806,39.1,39.1,0,0,1-4.042-1.935,9.25,9.25,0,0,1-2.752-2.537,6.8,6.8,0,0,1-1.161-4.042,9.208,9.208,0,0,1,1.548-5.375,9.532,9.532,0,0,1,4.3-3.44,15.95,15.95,0,0,1,6.364-1.2,14.852,14.852,0,0,1,5.719,1.032,8.521,8.521,0,0,1,3.87,2.881,7.244,7.244,0,0,1,1.419,4.472,8.984,8.984,0,0,1-.043,1.032h-9.073a3.216,3.216,0,0,0,.043-.6,1.992,1.992,0,0,0-.645-1.591,2.481,2.481,0,0,0-1.763-.6,2.88,2.88,0,0,0-1.892.6,1.935,1.935,0,0,0-.688,1.591,2.387,2.387,0,0,0,1.075,1.935,24.532,24.532,0,0,0,3.44,1.849A33.96,33.96,0,0,1,228.422,103a9.139,9.139,0,0,1,2.795,2.666,7.077,7.077,0,0,1,1.161,4.128,8.64,8.64,0,0,1-1.462,4.9,9.9,9.9,0,0,1-4.171,3.4A15.669,15.669,0,0,1,220.338,119.3Zm42.821-30.616-1.2,6.708h-8.041L249.743,119h-8.471l4.171-23.607h-8l1.2-6.708Zm11.547,0L269.374,119H260.9l5.375-30.315Zm11.593,0,3.01,21.844,10.707-21.844H309L293.179,119h-10.75l-5.117-30.315Zm40.036,25.37h-10.75L313.091,119h-8.858l16.383-30.315h9.718L336.01,119h-8.9Zm-.989-6.407L323.841,97.8l-4.988,9.847Zm23,4.945h9.417L356.6,119H338.714l5.375-30.315h8.428Z" fill="#c8ffa3" style="mix-blend-mode: lighten;isolation: isolate"/>
    <path id="Path_7" data-name="Path 7" d="M237.63,81h-4.617l-7.722-11.691V81h-4.617V62.046h4.617l7.722,11.745V62.046h4.617Zm9.044-15.255v3.834h6.183v3.564h-6.183V77.3h6.993V81h-11.61V62.046h11.61v3.7Zm24.705-3.7v3.7h-5.022V81H261.74V65.745h-5.022v-3.7Zm21.19,0L285.846,81h-5.778l-6.723-18.954h4.914l4.7,14.31,4.725-14.31Zm18.967,3.645v3.888h6.021v3.51h-6.021v4.266h6.831V81H306.919V77.814h-6.237L299.062,81h-5l9.693-18.954h14.607v3.645ZM306.919,74.3V65.475L302.464,74.3ZM332.112,81l-3.942-7.155h-1.107V81h-4.617V62.046H330.2a8.444,8.444,0,0,1,3.807.783,5.356,5.356,0,0,1,2.376,2.16,5.916,5.916,0,0,1,.783,3.024,5.594,5.594,0,0,1-1.08,3.375,5.672,5.672,0,0,1-3.132,2.106L337.323,81Zm-5.049-10.422h2.862a2.571,2.571,0,0,0,1.89-.621,2.316,2.316,0,0,0,.648-1.755,2.245,2.245,0,0,0-.648-1.7,2.571,2.571,0,0,0-1.89-.621h-2.862ZM352.128,81l-6.372-8.37V81h-4.617V62.046h4.617v8.316l6.318-8.316H357.5l-7.344,9.288L357.771,81Z" fill="rgba(255,255,255,0.5)" style="mix-blend-mode: lighten;isolation: isolate"/>
    <path id="Path_8" data-name="Path 8" d="M131.089,162.238v4.247h-8.866v4.588h6.634V175.2h-6.634V184h-5.3V162.238Zm13.078,21.979a11.44,11.44,0,0,1-5.642-1.426,10.841,10.841,0,0,1-4.061-3.968,11.3,11.3,0,0,1-1.488-5.766,11.14,11.14,0,0,1,1.488-5.735,10.841,10.841,0,0,1,4.061-3.968,11.44,11.44,0,0,1,5.642-1.426,11.269,11.269,0,0,1,5.611,1.426,10.331,10.331,0,0,1,4.03,3.968,11.14,11.14,0,0,1,1.488,5.735,11.3,11.3,0,0,1-1.488,5.766,10.61,10.61,0,0,1-4.03,3.968A11.269,11.269,0,0,1,144.167,184.217Zm0-4.836a5.293,5.293,0,0,0,4.154-1.736,6.55,6.55,0,0,0,1.581-4.588,6.481,6.481,0,0,0-1.581-4.588,5.293,5.293,0,0,0-4.154-1.736,5.472,5.472,0,0,0-4.216,1.705,6.608,6.608,0,0,0-1.55,4.619,6.678,6.678,0,0,0,1.55,4.619A5.472,5.472,0,0,0,144.167,179.381ZM169.343,184l-4.526-8.215h-1.271V184h-5.3V162.238h8.9a9.7,9.7,0,0,1,4.371.9,6.142,6.142,0,0,1,2.728,2.48,6.786,6.786,0,0,1,.9,3.472,6.42,6.42,0,0,1-1.24,3.875,6.507,6.507,0,0,1-3.6,2.418L175.326,184Zm-5.8-11.966h3.286a2.952,2.952,0,0,0,2.17-.713,2.659,2.659,0,0,0,.744-2.015,2.576,2.576,0,0,0-.744-1.953,2.952,2.952,0,0,0-2.17-.713h-3.286Zm20.223-5.549v4.4h7.1v4.092h-7.1v4.774H191.8V184h-13.33V162.238H191.8v4.247Zm19.344,17.732a11.19,11.19,0,0,1-4.278-.775,7.087,7.087,0,0,1-3.038-2.294,6.336,6.336,0,0,1-1.178-3.658h5.642a2.8,2.8,0,0,0,.837,1.86,2.737,2.737,0,0,0,1.86.62,2.969,2.969,0,0,0,1.86-.527,1.857,1.857,0,0,0,.682-1.519,1.755,1.755,0,0,0-.558-1.333,4.127,4.127,0,0,0-1.333-.868,20.044,20.044,0,0,0-2.232-.775,24.5,24.5,0,0,1-3.441-1.3,6.369,6.369,0,0,1-2.294-1.922,5.359,5.359,0,0,1-.961-3.317,5.663,5.663,0,0,1,2.2-4.743,8.992,8.992,0,0,1,5.735-1.736,9.092,9.092,0,0,1,5.8,1.736,6.109,6.109,0,0,1,2.356,4.774h-5.735a2.188,2.188,0,0,0-.775-1.643,2.688,2.688,0,0,0-1.829-.62,2.24,2.24,0,0,0-1.55.527,1.8,1.8,0,0,0-.589,1.457,1.826,1.826,0,0,0,.992,1.643,16.29,16.29,0,0,0,3.1,1.271,27.527,27.527,0,0,1,3.41,1.364,6.467,6.467,0,0,1,2.294,1.891,5.061,5.061,0,0,1,.961,3.193,6.188,6.188,0,0,1-.961,3.379,6.507,6.507,0,0,1-2.728,2.418A9.393,9.393,0,0,1,203.113,184.217Zm26.854-21.979v4.247H224.2V184h-5.3V166.485h-5.766v-4.247Zm7.961,0V184h-5.3V162.238Zm9.143,17.67h6.944V184H241.77V162.238h5.3Zm14.773,0h6.944V184H256.543V162.238h5.3Zm14.774-17.67V184h-5.3V162.238ZM299.927,184h-5.3l-8.866-13.423V184h-5.3V162.238h5.3l8.866,13.485V162.238h5.3Zm18.289-14.88a3.858,3.858,0,0,0-1.705-1.643,5.865,5.865,0,0,0-6.7,1.116,6.351,6.351,0,0,0-1.55,4.495,6.582,6.582,0,0,0,1.612,4.712,6.009,6.009,0,0,0,4.495,1.674,5.352,5.352,0,0,0,3.286-.992,5.588,5.588,0,0,0,1.984-2.852h-6.727v-3.906h11.532v4.929a10.642,10.642,0,0,1-5.58,6.448,11.065,11.065,0,0,1-4.9,1.054,11.782,11.782,0,0,1-5.766-1.4,10.291,10.291,0,0,1-3.937-3.937,12.486,12.486,0,0,1,0-11.47,10.012,10.012,0,0,1,3.937-3.937,11.4,11.4,0,0,1,5.735-1.426,11.07,11.07,0,0,1,6.572,1.891,8.9,8.9,0,0,1,3.565,5.239Zm14.468-2.635v4.4h7.1v4.092h-7.1v4.774h8.029V184h-13.33V162.238h13.33v4.247ZM355.252,184l-4.526-8.215h-1.271V184h-5.3V162.238h8.9a9.7,9.7,0,0,1,4.371.9,6.142,6.142,0,0,1,2.728,2.48,6.786,6.786,0,0,1,.9,3.472,6.42,6.42,0,0,1-1.24,3.875,6.507,6.507,0,0,1-3.6,2.418L361.235,184Zm-5.8-11.966h3.286a2.952,2.952,0,0,0,2.17-.713,2.659,2.659,0,0,0,.744-2.015,2.576,2.576,0,0,0-.744-1.953,2.952,2.952,0,0,0-2.17-.713h-3.286Z" fill="rgba(255,255,255,0.5)" style="mix-blend-mode: lighten;isolation: isolate"/>
    <path id="Path_9" data-name="Path 9" d="M25.7,51H20.57L11.99,38.01V51H6.86V29.94h5.13l8.58,13.05V29.94H25.7ZM47.479,29.94l-7.29,14.1V51h-5.13V44.04l-7.29-14.1h5.82l4.08,8.82,4.05-8.82Zm17.217,0v4.11h-5.58V51h-5.13V34.05h-5.58V29.94ZM85,33.99v4.32h6.69v3.9H85v4.74h7.59V51H79.87V47.46H72.94L71.14,51H65.59L76.36,29.94H92.59v4.05Zm-5.13,9.57V33.75l-4.95,9.81ZM114.763,51h-5.13l-8.58-12.99V51H95.923V29.94h5.131l8.58,13.05V29.94h5.13Zm15.928,0-7.08-9.3V51h-5.13V29.94h5.13v9.24l7.02-9.24h6.03L128.5,40.26,136.961,51Zm13.838-16.95v4.26h6.87v3.96h-6.87v4.62h7.77V51H139.4V29.94h12.9v4.11ZM174.47,51h-5.13l-8.58-12.99V51h-5.13V29.94h5.13l8.58,13.05V29.94h5.13Zm11.608-21.06a12.25,12.25,0,0,1,5.82,1.32,9.305,9.305,0,0,1,3.84,3.72,10.711,10.711,0,0,1,1.38,5.49,10.814,10.814,0,0,1-1.38,5.49,9.263,9.263,0,0,1-3.87,3.72,12.183,12.183,0,0,1-5.79,1.32h-7.89V29.94Zm-.33,16.62a6.191,6.191,0,0,0,4.53-1.59,6.02,6.02,0,0,0,1.62-4.5,5.624,5.624,0,0,0-6.15-6.15h-2.43V46.56Zm19.367-12.51v4.26h6.87v3.96h-6.87v4.62h7.77V51h-12.9V29.94h12.9v4.11Z" fill="rgba(255,255,255,0.5)" style="mix-blend-mode: lighten;isolation: isolate"/>
    <path id="Path_10" data-name="Path 10" d="M15.64,153.28a14.438,14.438,0,0,1-5.52-1,9.137,9.137,0,0,1-3.92-2.96,8.169,8.169,0,0,1-1.52-4.72h7.28a3.613,3.613,0,0,0,1.08,2.4,3.528,3.528,0,0,0,2.4.8,3.834,3.834,0,0,0,2.4-.68,2.4,2.4,0,0,0,.88-1.96,2.264,2.264,0,0,0-.72-1.72,5.339,5.339,0,0,0-1.72-1.12,25.993,25.993,0,0,0-2.88-1,31.581,31.581,0,0,1-4.44-1.68A8.207,8.207,0,0,1,6,137.16a6.909,6.909,0,0,1-1.24-4.28,7.306,7.306,0,0,1,2.84-6.12,11.6,11.6,0,0,1,7.4-2.24,11.733,11.733,0,0,1,7.48,2.24,7.887,7.887,0,0,1,3.04,6.16h-7.4a2.828,2.828,0,0,0-1-2.12,3.468,3.468,0,0,0-2.36-.8,2.888,2.888,0,0,0-2,.68,2.319,2.319,0,0,0-.76,1.88,2.355,2.355,0,0,0,1.28,2.12,20.982,20.982,0,0,0,4,1.64,35.585,35.585,0,0,1,4.4,1.76,8.357,8.357,0,0,1,2.96,2.44,6.532,6.532,0,0,1,1.24,4.12A7.988,7.988,0,0,1,24.64,149a8.4,8.4,0,0,1-3.52,3.12A12.123,12.123,0,0,1,15.64,153.28Zm35.849-19.32a9.155,9.155,0,0,1-1.12,4.48,8.28,8.28,0,0,1-3.44,3.24,12.107,12.107,0,0,1-5.76,1.24h-4.24V153h-6.84V124.92h11.08a12.614,12.614,0,0,1,5.68,1.16,7.971,7.971,0,0,1,3.48,3.2A9.3,9.3,0,0,1,51.489,133.96Zm-10.84,3.52a4.082,4.082,0,0,0,2.92-.92,4,4,0,0,0,0-5.2,4.082,4.082,0,0,0-2.92-.92h-3.72v7.04ZM61.89,124.92V153H55.05V124.92ZM81.167,153l-5.84-10.6h-1.64V153h-6.84V124.92h11.48a12.514,12.514,0,0,1,5.64,1.16,7.932,7.932,0,0,1,3.52,3.2,8.765,8.765,0,0,1,1.16,4.48,8.286,8.286,0,0,1-1.6,5,8.4,8.4,0,0,1-4.64,3.12L88.887,153Zm-7.48-15.44h4.24a3.81,3.81,0,0,0,2.8-.92,3.431,3.431,0,0,0,.96-2.6,3.324,3.324,0,0,0-.96-2.52,3.81,3.81,0,0,0-2.8-.92h-4.24Zm26.094-7.16v5.68h9.16v5.28h-9.16v6.16h10.36V153h-17.2V124.92h17.2v5.48ZM139.7,153h-6.84l-11.44-17.32V153h-6.84V124.92h6.84l11.44,17.4v-17.4h6.84Zm15.478-28.08a16.339,16.339,0,0,1,7.76,1.76,12.409,12.409,0,0,1,5.12,4.96,15.48,15.48,0,0,1,0,14.64,12.35,12.35,0,0,1-5.16,4.96,16.25,16.25,0,0,1-7.72,1.76H144.66V124.92Zm-.44,22.16a8.258,8.258,0,0,0,6.04-2.12,8.026,8.026,0,0,0,2.16-6,7.5,7.5,0,0,0-8.2-8.2H151.5v16.32Zm25.822-16.68v5.68h9.16v5.28h-9.16v6.16h10.36V153h-17.2V124.92h17.2v5.48Z" fill="rgba(255,255,255,0.4)" style="mix-blend-mode: lighten;isolation: isolate"/>
    <path id="Path_11" data-name="Path 11" d="M246.914,49.72h8.96V55h-15.8V26.92h6.84Zm19.062-22.8V55h-6.84V26.92Zm31.317,0L287.333,55h-8.56l-9.96-28.08h7.28l6.96,21.2,7-21.2Zm9.7,22.8h8.96V55h-15.8V26.92h6.84Zm19.062-22.8V55h-6.84V26.92Zm23.6,8.88a4.971,4.971,0,0,0-2.2-2.12,7.568,7.568,0,0,0-8.64,1.44,8.2,8.2,0,0,0-2,5.8,8.5,8.5,0,0,0,2.08,6.08,7.757,7.757,0,0,0,5.8,2.16,6.9,6.9,0,0,0,4.24-1.28,7.2,7.2,0,0,0,2.56-3.68h-8.68V39.16h14.88v6.36a13.249,13.249,0,0,1-2.6,4.76,13.4,13.4,0,0,1-4.6,3.56,14.276,14.276,0,0,1-6.32,1.36,15.209,15.209,0,0,1-7.44-1.8,13.284,13.284,0,0,1-5.08-5.08,14.98,14.98,0,0,1-1.8-7.4,14.98,14.98,0,0,1,1.8-7.4,12.929,12.929,0,0,1,5.08-5.08,14.721,14.721,0,0,1,7.4-1.84,14.283,14.283,0,0,1,8.48,2.44,11.482,11.482,0,0,1,4.6,6.76Z" fill="rgba(255,255,255,0.5)" style="mix-blend-mode: lighten;isolation: isolate"/>
  </g>
</svg>
